<?xml version="1.0" encoding="UTF-8" standalone="no"?>
<!-- Created with Inkscape (http://www.inkscape.org/) -->

<svg
   xmlns:dc="http://purl.org/dc/elements/1.1/"
   xmlns:cc="http://creativecommons.org/ns#"
   xmlns:rdf="http://www.w3.org/1999/02/22-rdf-syntax-ns#"
   xmlns:svg="http://www.w3.org/2000/svg"
   xmlns="http://www.w3.org/2000/svg"
   xmlns:sodipodi="http://sodipodi.sourceforge.net/DTD/sodipodi-0.dtd"
   xmlns:inkscape="http://www.inkscape.org/namespaces/inkscape"
   width="53.96563mm"
   height="53.96563mm"
   viewBox="0 0 53.965632 53.965632"
   version="1.1"
   id="svg1111"
   inkscape:version="0.92.4 (5da689c313, 2019-01-14)"
   sodipodi:docname="logo-cuadrado-invertido-blender.svg"
   inkscape:export-filename="/home/sergio/Dropbox/Compartidas/Aula de Software Libre/Grafismo/LOGOS/version-final/logo-cuadrado-fondo-blanco.png"
   inkscape:export-xdpi="300"
   inkscape:export-ydpi="300">
  <sodipodi:namedview
     id="base"
     pagecolor="#ffffff"
     bordercolor="#666666"
     borderopacity="1.0"
     inkscape:pageopacity="0"
     inkscape:pageshadow="2"
     inkscape:zoom="4.9579552"
     inkscape:cx="73.690479"
     inkscape:cy="98.854089"
     inkscape:document-units="mm"
     inkscape:current-layer="g956"
     showgrid="false"
     inkscape:lockguides="false"
     showguides="true"
     inkscape:guide-bbox="true"
     inkscape:window-width="2560"
     inkscape:window-height="1360"
     inkscape:window-x="0"
     inkscape:window-y="48"
     inkscape:window-maximized="1"
     fit-margin-top="2"
     fit-margin-left="2"
     fit-margin-right="2"
     fit-margin-bottom="2"
     inkscape:measure-start="164.332,140.229"
     inkscape:measure-end="186.871,140.229"
     units="mm"
     inkscape:pagecheckerboard="true" />
  <defs
     id="defs1105" />
  <metadata
     id="metadata1108">
    <rdf:RDF>
      <cc:Work
         rdf:about="">
        <dc:format>image/svg+xml</dc:format>
        <dc:type
           rdf:resource="http://purl.org/dc/dcmitype/StillImage" />
        <dc:title />
      </cc:Work>
    </rdf:RDF>
  </metadata>
  <g
     style="display:inline;opacity:1"
     inkscape:label="Imagotipo"
     id="layer6"
     inkscape:groupmode="layer"
     transform="translate(-2.0479679,0.60108161)">
    <g
       id="g9446">
      <g
         id="g9326"
         transform="translate(3.8305537,-0.56739753)">
        <g
           id="g9293"
           transform="translate(0,0.99845726)" />
      </g>
      <g
         id="g956">
        <path
           style="color:#000000;font-style:normal;font-variant:normal;font-weight:normal;font-stretch:normal;font-size:medium;line-height:normal;font-family:sans-serif;font-variant-ligatures:normal;font-variant-position:normal;font-variant-caps:normal;font-variant-numeric:normal;font-variant-alternates:normal;font-feature-settings:normal;text-indent:0;text-align:start;text-decoration:none;text-decoration-line:none;text-decoration-style:solid;text-decoration-color:#000000;letter-spacing:normal;word-spacing:normal;text-transform:none;writing-mode:lr-tb;direction:ltr;text-orientation:mixed;dominant-baseline:auto;baseline-shift:baseline;text-anchor:start;white-space:normal;shape-padding:0;clip-rule:nonzero;display:inline;overflow:visible;visibility:visible;opacity:1;isolation:auto;mix-blend-mode:normal;color-interpolation:sRGB;color-interpolation-filters:linearRGB;solid-color:#000000;solid-opacity:1;vector-effect:none;fill:#fdfdfd;fill-opacity:1;fill-rule:nonzero;stroke:none;stroke-width:2.5;stroke-linecap:butt;stroke-linejoin:miter;stroke-miterlimit:4;stroke-dasharray:none;stroke-dashoffset:0;stroke-opacity:1;color-rendering:auto;image-rendering:auto;shape-rendering:auto;text-rendering:auto;enable-background:accumulate"
           d="m 4.0488281,1.3984375 c 0,16.6555985 0,33.3111975 0,49.9667965 H 54.013672 V 1.3984375 Z m 2.5,2.5 H 51.513672 V 48.865234 H 6.5488281 Z"
           id="rect9418"
           inkscape:connector-curvature="0"
           sodipodi:nodetypes="cccccccccc" />
        <g
           aria-label="AULA"
           transform="matrix(0.19817737,0,0,0.19817737,-36.522482,-64.443742)"
           style="font-style:normal;font-weight:normal;font-size:40px;line-height:1.25;font-family:sans-serif;letter-spacing:0px;word-spacing:0px;display:inline;opacity:1;fill:#ffffff;fill-opacity:1;stroke:none"
           id="flowRoot532-7-4-2">
          <path
             style="letter-spacing:1.33508348px;fill:#ffffff;stroke-width:0.74901682"
             d="M 52.5 24.458984 L 38.919922 57.265625 L 39.876953 57.265625 C 40.156951 57.265625 40.336285 57.133584 40.414062 56.869141 L 44.683594 46.486328 L 61.53125 46.486328 L 65.800781 56.869141 C 65.909668 57.133584 66.081119 57.265625 66.314453 57.265625 L 67.316406 57.265625 L 53.738281 24.458984 L 52.5 24.458984 z M 73.941406 24.458984 L 73.941406 44.947266 C 73.941406 46.720598 74.22125 48.383895 74.78125 49.939453 C 75.34125 51.479452 76.143325 52.825448 77.185547 53.976562 C 78.227769 55.127672 79.494951 56.038144 80.988281 56.707031 C 82.481616 57.360369 84.162632 57.6875 86.029297 57.6875 C 87.895967 57.6875 89.567147 57.360369 91.044922 56.707031 C 92.538257 56.038144 93.807387 55.127672 94.849609 53.976562 C 95.907386 52.825448 96.715391 51.479452 97.275391 49.939453 C 97.835391 48.383895 98.115234 46.720598 98.115234 44.947266 L 98.115234 24.458984 L 96.808594 24.458984 L 96.808594 44.947266 C 96.808594 46.565047 96.560277 48.080542 96.0625 49.496094 C 95.580278 50.896096 94.872788 52.117934 93.939453 53.160156 C 93.021678 54.202378 91.892467 55.026149 90.554688 55.632812 C 89.232468 56.223927 87.724856 56.519531 86.029297 56.519531 C 84.333742 56.519531 82.816295 56.223927 81.478516 55.632812 C 80.140742 55.026149 79.005601 54.202378 78.072266 53.160156 C 77.15449 52.10238 76.447 50.864776 75.949219 49.449219 C 75.466997 48.033662 75.224609 46.518167 75.224609 44.900391 L 75.224609 24.458984 L 73.941406 24.458984 z M 109.58594 24.458984 L 109.58594 57.265625 L 127.13281 57.265625 L 127.13281 56.146484 L 110.86914 56.146484 L 110.86914 24.458984 L 109.58594 24.458984 z M 150.22656 24.458984 L 136.64648 57.265625 L 137.60352 57.265625 C 137.88352 57.265625 138.06285 57.133584 138.14062 56.869141 L 142.41016 46.486328 L 159.25781 46.486328 L 163.52734 56.869141 C 163.63624 57.133584 163.80768 57.265625 164.04102 57.265625 L 165.04297 57.265625 L 151.46484 24.458984 L 150.22656 24.458984 z M 53.107422 25.859375 C 53.1852 26.123818 53.262066 26.366205 53.339844 26.583984 C 53.433176 26.801764 53.519878 27.018549 53.597656 27.236328 L 61.111328 45.505859 L 45.103516 45.505859 L 52.617188 27.236328 L 52.851562 26.583984 C 52.944895 26.366205 53.029644 26.123818 53.107422 25.859375 z M 150.83398 25.859375 C 150.91176 26.123818 150.98863 26.366205 151.06641 26.583984 C 151.15974 26.801764 151.24644 27.018549 151.32422 27.236328 L 158.83789 45.505859 L 142.83008 45.505859 L 150.34375 27.236328 L 150.57812 26.583984 C 150.67146 26.366205 150.75621 26.123818 150.83398 25.859375 z "
             transform="matrix(1.3350835,0,0,1.3350835,194.6259,322.14909)"
             id="path847" />
        </g>
        <g
           aria-label="LIBRE"
           transform="matrix(0.19858155,0,0,0.19858155,-36.779109,-32.239259)"
           style="font-style:normal;font-weight:normal;font-size:40px;line-height:1.25;font-family:sans-serif;letter-spacing:0px;word-spacing:0px;display:inline;opacity:1;fill:#ffffff;fill-opacity:1;stroke:none"
           id="flowRoot532-7-4-6-4">
          <path
             style="letter-spacing:5.32946444px;fill:#ffffff;stroke-width:0.75054443"
             d="M 42.689453 146.69727 L 42.689453 179.50391 L 60.236328 179.50391 L 60.236328 178.38477 L 43.972656 178.38477 L 43.972656 146.69727 L 42.689453 146.69727 z M 70.113281 146.69727 L 70.113281 179.50391 L 71.396484 179.50391 L 71.396484 146.69727 L 70.113281 146.69727 z M 81.779297 146.69727 L 81.779297 179.50391 L 91.90625 179.50391 C 93.617361 179.50391 95.142693 179.31076 96.480469 178.92188 C 97.818249 178.53298 98.945506 177.96542 99.863281 177.21875 C 100.79661 176.47208 101.5041 175.56161 101.98633 174.48828 C 102.46855 173.39939 102.71094 172.1539 102.71094 170.75391 C 102.71094 169.61835 102.51584 168.5916 102.12695 167.67383 C 101.73807 166.7405 101.17049 165.94037 100.42383 165.27148 C 99.692713 164.58704 98.79013 164.03523 97.716797 163.61523 C 96.65902 163.17968 95.452941 162.89195 94.099609 162.75195 C 95.188499 162.56528 96.169904 162.22239 97.041016 161.72461 C 97.927679 161.22683 98.680508 160.62774 99.302734 159.92773 C 99.924956 159.22774 100.40778 158.44931 100.75 157.59375 C 101.09222 156.73819 101.26367 155.85333 101.26367 154.93555 C 101.26367 152.30666 100.39261 150.27486 98.650391 148.84375 C 96.908167 147.41264 94.247702 146.69727 90.669922 146.69727 L 81.779297 146.69727 z M 113.44727 146.69727 L 113.44727 179.50391 L 114.73047 179.50391 L 114.73047 164.05859 L 119.51367 164.05859 C 119.84034 164.05859 120.1123 164.07435 120.33008 164.10547 C 120.56341 164.13658 120.7585 164.1898 120.91406 164.26758 C 121.08517 164.3298 121.23298 164.4165 121.35742 164.52539 C 121.49742 164.63428 121.62946 164.7742 121.75391 164.94531 L 133.32617 179.10742 C 133.45062 179.27852 133.57673 179.38886 133.70117 179.43555 C 133.84117 179.48223 133.99491 179.50391 134.16602 179.50391 L 135.2168 179.50391 L 123.01367 164.6875 C 122.74923 164.37639 122.47726 164.14383 122.19727 163.98828 C 123.70616 163.89495 125.08173 163.62299 126.32617 163.17188 C 127.57062 162.72076 128.62889 162.11379 129.5 161.35156 C 130.37111 160.57379 131.04707 159.65544 131.5293 158.59766 C 132.01152 157.53988 132.25391 156.36533 132.25391 155.07422 C 132.25391 152.25867 131.32767 150.15983 129.47656 148.77539 C 127.62545 147.39095 124.91965 146.69727 121.35742 146.69727 L 113.44727 146.69727 z M 144.33789 146.69727 L 144.33789 179.50391 L 163.70508 179.50391 L 163.75 178.4082 L 145.62109 178.4082 L 145.62109 163.4043 L 160.85742 163.4043 L 160.85742 162.33203 L 145.62109 162.33203 L 145.62109 147.79492 L 163.70508 147.79492 L 163.70508 146.69727 L 144.33789 146.69727 z M 83.064453 147.72461 L 90.669922 147.72461 C 93.827703 147.72461 96.168914 148.35523 97.693359 149.61523 C 99.233356 150.87523 100.00391 152.67845 100.00391 155.02734 C 100.00391 155.8829 99.832458 156.75396 99.490234 157.64062 C 99.163567 158.51174 98.627526 159.30593 97.880859 160.02148 C 97.149749 160.72148 96.199869 161.29693 95.033203 161.74805 C 93.882093 162.1836 92.482875 162.40039 90.833984 162.40039 L 83.064453 162.40039 L 83.064453 147.72461 z M 114.73047 147.72461 L 121.35742 147.72461 C 124.46853 147.72461 126.8472 148.32371 128.49609 149.52148 C 130.14498 150.71926 130.9707 152.58554 130.9707 155.12109 C 130.9707 156.34999 130.73619 157.45555 130.26953 158.43555 C 129.81842 159.41555 129.15822 160.25508 128.28711 160.95508 C 127.43155 161.63952 126.38116 162.16768 125.13672 162.54102 C 123.90783 162.8988 122.52437 163.07812 120.98438 163.07812 L 114.73047 163.07812 L 114.73047 147.72461 z M 83.064453 163.38086 L 91.929688 163.38086 C 93.391908 163.38086 94.706381 163.55231 95.873047 163.89453 C 97.055269 164.23675 98.050488 164.72746 98.859375 165.36523 C 99.683823 166.00301 100.31445 166.7716 100.75 167.67383 C 101.20111 168.57605 101.42773 169.59491 101.42773 170.73047 C 101.42773 173.25047 100.60201 175.17192 98.953125 176.49414 C 97.31979 177.8008 94.970693 178.45508 91.90625 178.45508 L 83.064453 178.45508 L 83.064453 163.38086 z "
             transform="matrix(1.3323661,0,0,1.3323661,195.52208,159.32083)"
             id="path856" />
        </g>
        <g
           aria-label="WARE"
           transform="matrix(0.13510864,0,0,0.13510864,-20.842237,-20.27182)"
           style="font-style:normal;font-weight:normal;font-size:40px;line-height:1.25;font-family:sans-serif;letter-spacing:-1.85840273px;word-spacing:0px;display:inline;opacity:1;fill:#ffffff;fill-opacity:1;stroke:none"
           id="flowRoot2886">
          <path
             style="letter-spacing:-7.83320236px;fill:#ffffff;stroke-width:0.51064682"
             d="M 38.919922 108.47852 L 48.820312 140.53125 L 55.552734 140.53125 L 61.667969 120.66602 C 61.887969 120.03535 62.101306 119.30962 62.306641 118.48828 C 62.511972 119.30962 62.725312 120.03535 62.945312 120.66602 L 68.972656 140.53125 L 75.705078 140.53125 L 85.605469 108.47852 L 79.751953 108.47852 C 79.135953 108.47852 78.607969 108.64022 78.167969 108.96289 C 77.727968 109.28556 77.449364 109.65865 77.332031 110.08398 L 72.933594 126.80469 C 72.801595 127.31802 72.669112 127.86646 72.537109 128.45312 C 72.419776 129.03979 72.30288 129.6574 72.185547 130.30273 C 71.921546 128.9974 71.598128 127.83135 71.216797 126.80469 L 66.068359 110.08398 C 65.863028 109.61465 65.562015 109.23279 65.166016 108.93945 C 64.770016 108.63145 64.250804 108.47852 63.605469 108.47852 L 61.404297 108.47852 C 60.788297 108.47852 60.260313 108.64704 59.820312 108.98438 C 59.394981 109.30704 59.116377 109.67332 58.984375 110.08398 L 53.792969 126.80469 C 53.411635 127.87535 53.08822 129.09985 52.824219 130.47852 C 52.69222 129.80385 52.559737 129.15702 52.427734 128.54102 C 52.295736 127.92502 52.165202 127.34736 52.033203 126.80469 L 47.632812 110.08398 C 47.500814 109.59999 47.215391 109.2113 46.775391 108.91797 C 46.350059 108.62463 45.813304 108.47852 45.167969 108.47852 L 38.919922 108.47852 z M 93.503906 108.47852 L 81.095703 140.53125 L 86.904297 140.53125 C 87.520297 140.53125 88.034647 140.37149 88.445312 140.04883 C 88.870647 139.71149 89.162885 139.33645 89.324219 138.92578 L 91.216797 133.33789 L 103.4043 133.33789 L 105.29688 138.92578 C 105.50221 139.39512 105.80322 139.7838 106.19922 140.0918 C 106.59522 140.38513 107.11443 140.53125 107.75977 140.53125 L 113.52539 140.53125 L 101.11719 108.47852 L 93.503906 108.47852 z M 115.10352 108.47852 L 115.10352 140.53125 L 122.53906 140.53125 L 122.53906 128.67383 L 124.43164 128.67383 C 125.00364 128.67383 125.442 128.76832 125.75 128.95898 C 126.058 129.13498 126.33661 129.42236 126.58594 129.81836 L 131.91016 139.12305 C 132.45282 140.06171 133.34904 140.53125 134.5957 140.53125 L 141.32617 140.53125 L 134.50781 129.37891 C 134.17048 128.86557 133.78861 128.42526 133.36328 128.05859 C 132.93795 127.67726 132.47523 127.36066 131.97656 127.11133 C 133.0179 126.71533 133.93456 126.20975 134.72656 125.59375 C 135.53323 124.97775 136.20733 124.28124 136.75 123.50391 C 137.30733 122.71191 137.72719 121.85369 138.00586 120.92969 C 138.28453 120.00569 138.42383 119.02376 138.42383 117.98242 C 138.42383 116.61842 138.18809 115.35593 137.71875 114.19727 C 137.24942 113.0386 136.49446 112.03426 135.45312 111.18359 C 134.42646 110.33293 133.09188 109.67246 131.44922 109.20312 C 129.82122 108.71912 127.84859 108.47852 125.53125 108.47852 L 115.10352 108.47852 z M 143.11523 108.47852 L 143.11523 140.53125 L 163.75 140.53125 L 163.75 134.8125 L 150.5957 134.8125 L 150.5957 127.17773 L 160.66992 127.17773 L 160.66992 121.67773 L 150.5957 121.67773 L 150.5957 114.19727 L 163.75 114.19727 L 163.75 108.47852 L 143.11523 108.47852 z M 122.53906 114.04297 L 125.53125 114.04297 C 127.45259 114.04297 128.86801 114.44042 129.77734 115.23242 C 130.70134 116.02442 131.16211 117.12325 131.16211 118.53125 C 131.16211 119.23525 131.0608 119.89572 130.85547 120.51172 C 130.65013 121.11305 130.3199 121.64104 129.86523 122.0957 C 129.41057 122.55037 128.82414 122.90983 128.10547 123.17383 C 127.40147 123.42316 126.54325 123.54883 125.53125 123.54883 L 122.53906 123.54883 L 122.53906 114.04297 z M 97.289062 115.07812 C 97.538398 115.95812 97.787778 116.77835 98.037109 117.54102 C 98.286445 118.28901 98.520234 118.94267 98.740234 119.5 L 101.68945 128.27734 L 92.933594 128.27734 L 95.880859 119.54297 C 96.10086 118.98564 96.327834 118.32712 96.5625 117.56445 C 96.811832 116.80179 97.054396 115.97279 97.289062 115.07812 z "
             transform="matrix(1.9583006,0,0,1.9583006,169.42073,145.59201)"
             id="path867" />
        </g>
        <g
           aria-label="FT"
           transform="matrix(0.16403442,0,0,0.16403442,-10.739026,-42.51506)"
           style="font-style:normal;font-weight:normal;font-size:40px;line-height:1.25;font-family:sans-serif;letter-spacing:-1.85840273px;word-spacing:0px;fill:#ffffff;fill-opacity:1;stroke:none"
           id="flowRoot532-7-0-0-3">
          <path
             style="font-style:normal;font-variant:normal;font-weight:900;font-stretch:normal;font-size:86.0253067px;font-family:Lato;-inkscape-font-specification:'Lato, Heavy';font-variant-ligatures:normal;font-variant-caps:normal;font-variant-numeric:normal;font-feature-settings:normal;text-align:start;letter-spacing:0px;writing-mode:lr-tb;text-anchor:start;fill:#ffffff;stroke-width:0.61997259"
             d="M 54.212891 63.105469 C 52.079557 63.105469 50.186538 63.435976 48.533203 64.09375 C 46.879868 64.733752 45.485434 65.595244 44.347656 66.679688 C 43.209878 67.764131 42.346429 69.000051 41.759766 70.386719 C 41.173098 71.773387 40.880859 73.194565 40.880859 74.652344 C 40.880859 76.465677 41.129177 77.995792 41.626953 79.240234 C 42.124733 80.4669 42.774218 81.496473 43.574219 82.332031 C 44.391996 83.149808 45.316547 83.816474 46.347656 84.332031 C 47.37877 84.829807 48.435088 85.257723 49.519531 85.613281 C 50.603975 85.951059 51.662246 86.262432 52.693359 86.546875 C 53.724469 86.831318 54.639453 87.159868 55.439453 87.533203 C 56.25723 87.906534 56.916286 88.376421 57.414062 88.945312 C 57.911843 89.514199 58.160156 90.253488 58.160156 91.160156 C 58.160156 92.724599 57.70745 93.87072 56.800781 94.599609 C 55.894117 95.310722 54.621886 95.666016 52.986328 95.666016 C 51.777439 95.666016 50.728732 95.497934 49.839844 95.160156 C 48.950956 94.822379 48.160129 94.447955 47.466797 94.039062 C 46.791238 93.630174 46.178063 93.257699 45.626953 92.919922 C 45.09362 92.582144 44.560677 92.412109 44.027344 92.412109 C 43.618455 92.412109 43.236414 92.519089 42.880859 92.732422 C 42.543082 92.927978 42.266067 93.176291 42.052734 93.478516 L 39.386719 97.693359 C 40.151166 98.457802 41.048969 99.151216 42.080078 99.773438 C 43.111188 100.39566 44.213383 100.93817 45.386719 101.40039 C 46.56005 101.84483 47.769226 102.19056 49.013672 102.43945 C 50.275895 102.68834 51.511814 102.8125 52.720703 102.8125 C 54.925148 102.8125 56.88884 102.48395 58.613281 101.82617 C 60.355503 101.15062 61.812993 100.23563 62.986328 99.080078 C 64.17744 97.906743 65.08481 96.537099 65.707031 94.972656 C 66.329252 93.408209 66.640625 91.729146 66.640625 89.933594 C 66.640625 88.315812 66.390354 86.936606 65.892578 85.798828 C 65.394798 84.643274 64.737699 83.665235 63.919922 82.865234 C 63.119922 82.065234 62.195371 81.408131 61.146484 80.892578 C 60.115371 80.377021 59.0571 79.931929 57.972656 79.558594 C 56.888213 79.167482 55.822328 78.821751 54.773438 78.519531 C 53.742328 78.19953 52.817777 77.851847 52 77.478516 C 51.2 77.105181 50.550515 76.662041 50.052734 76.146484 C 49.554958 75.630932 49.306641 74.981442 49.306641 74.199219 C 49.306641 72.972553 49.715426 72.004081 50.533203 71.292969 C 51.368757 70.564079 52.63142 70.199219 54.320312 70.199219 C 55.298088 70.199219 56.169147 70.332943 56.933594 70.599609 C 57.698037 70.848499 58.37427 71.133124 58.960938 71.453125 C 59.565382 71.773122 60.098324 72.065364 60.560547 72.332031 C 61.040546 72.580921 61.48369 72.707031 61.892578 72.707031 C 62.354801 72.707031 62.729228 72.600051 63.013672 72.386719 C 63.315896 72.173386 63.600521 71.852451 63.867188 71.425781 L 66.107422 67.240234 C 65.41409 66.600233 64.623267 66.030979 63.734375 65.533203 C 62.863264 65.017646 61.919583 64.582117 60.90625 64.226562 C 59.892917 63.853227 58.817465 63.578166 57.679688 63.400391 C 56.559686 63.204835 55.403999 63.105469 54.212891 63.105469 z M 107.61328 63.533203 L 107.61328 102.38672 L 116.67969 102.38672 L 116.67969 87.265625 L 129.96094 87.265625 L 129.96094 80.306641 L 116.67969 80.306641 L 116.67969 70.466797 L 132.62695 70.466797 L 132.62695 63.533203 L 107.61328 63.533203 z M 134.86133 63.533203 L 134.86133 70.679688 L 145.79492 70.679688 L 145.79492 102.38672 L 154.80859 102.38672 L 154.80859 70.679688 L 165.74219 70.679688 L 165.74219 63.533203 L 134.86133 63.533203 z "
             transform="matrix(1.6129745,0,0,1.6129745,77.953114,255.51941)"
             id="path876" />
        </g>
        <g
           aria-label="S"
           transform="matrix(0.16403442,0,0,0.16403442,-27.993493,-42.51506)"
           style="font-style:normal;font-weight:normal;font-size:40px;line-height:1.25;font-family:sans-serif;letter-spacing:-1.85840273px;word-spacing:0px;fill:#ffffff;fill-opacity:1;stroke:none"
           id="flowRoot532-7-0-0-3-1" />
        <path
           style="font-style:normal;font-variant:normal;font-weight:600;font-stretch:normal;font-size:85.33333588px;line-height:1.25;font-family:Lato;-inkscape-font-specification:'Lato, Semi-Bold';font-variant-ligatures:normal;font-variant-caps:normal;font-variant-numeric:normal;font-feature-settings:normal;text-align:start;letter-spacing:0px;word-spacing:0px;writing-mode:lr-tb;text-anchor:start;fill:#ffffff;fill-opacity:1;stroke:none;stroke-width:0.506751;stroke-opacity:1"
           d="M 86.382812 61.244141 C 84.003252 61.329552 81.564175 62.350893 79.896484 63.685547 C 78.254718 64.99945 77.326357 66.704537 76.621094 68.521484 C 75.91583 70.338428 72.3605 70.757017 71.617188 72.517578 C 71.260275 73.362968 74.087663 73.441097 74.015625 74.402344 C 73.943636 75.363602 73.628864 76.589895 73.339844 77.669922 C 72.737296 79.921693 71.755593 82.102294 71.138672 84.351562 C 70.621209 86.238204 69.882812 88.127025 69.882812 90.058594 C 69.882812 91.990178 70.300921 94.022617 71.138672 95.763672 C 71.976412 97.504711 73.160913 99.007622 74.691406 100.27148 C 76.221899 101.52246 78.051149 102.50358 80.177734 103.21289 C 82.320432 103.92219 84.68747 104.27539 87.28125 104.27539 C 89.891154 104.27539 92.260137 103.9222 94.386719 103.21289 C 96.529416 102.50358 98.356713 101.52246 99.871094 100.27148 C 101.40159 99.007622 102.58609 97.504711 103.42383 95.763672 C 104.26158 94.022617 104.68164 91.990178 104.68164 90.058594 C 104.68164 88.127025 103.95424 86.235895 103.42383 84.351562 C 102.44366 80.869423 101.45861 77.362902 99.871094 74.027344 C 98.367299 70.867678 97.042743 67.47437 94.255859 64.933594 C 92.442057 63.279979 90.130897 61.493972 87.396484 61.267578 C 87.061392 61.239834 86.72275 61.231939 86.382812 61.244141 z M 86.537109 67.404297 C 87.996483 67.431116 89.332101 68.326176 90.296875 69.203125 C 92.57525 71.27411 93.329835 74.175255 94.435547 76.789062 C 95.567103 79.463936 96.261175 82.248285 96.964844 85.015625 C 97.365462 86.591189 97.850228 88.170617 97.925781 89.777344 C 97.985033 91.038837 97.962577 92.338339 97.523438 93.550781 C 97.098721 94.723395 96.40132 95.870175 95.414062 96.800781 C 94.600534 97.567617 93.549487 98.212721 92.394531 98.609375 C 90.805777 99.155025 89.0088 99.252228 87.28125 99.304688 C 86.163802 99.338628 85.004175 99.335116 83.941406 99.056641 C 82.636403 98.714707 81.409203 98.113756 80.408203 97.361328 C 79.313694 96.538612 78.459638 95.490211 77.853516 94.390625 C 77.115351 93.051474 76.730295 91.574004 76.613281 90.113281 C 76.497775 88.671025 76.872458 87.228294 77.154297 85.800781 C 77.672342 83.176908 78.43209 80.583812 79.261719 78.011719 C 80.231462 75.005199 80.158588 71.494122 82.613281 69.089844 C 83.552709 68.169718 85.053021 67.377084 86.537109 67.404297 z M 85.125 70.654297 C 84.192035 70.658904 84.18724 70.659912 83.513672 71.369141 C 83.11754 71.786272 83.017356 72.054931 83.173828 72.275391 C 83.354172 72.529522 83.558697 72.505451 84.259766 72.142578 C 84.858023 71.832997 85.243031 71.753729 85.505859 71.884766 C 85.932984 72.097821 86.575589 71.886611 86.626953 71.517578 C 86.68461 71.102903 85.896175 70.649383 85.125 70.654297 z "
           transform="matrix(0.26458333,0,0,0.26458333,2.0479679,-0.60108161)"
           id="path66-8-5-3-8-9-5-4" />
      </g>
    </g>
  </g>
</svg>
