<svg version="1.2" xmlns="http://www.w3.org/2000/svg" viewBox="0 0 63 14" width="63" height="14">
	<title>isologo-blanco-svg</title>
	<style>
		.s0 { fill: #ffffff } 
	</style>
	<g id="layer1">
		<g id="g1757">
			<g id="flowRoot1645">
				<path id="path1707" class="s0" d="m4.9 10.1q0 0 0 0h-0.1q-0.2-0.2-0.4-0.8l-0.2-0.4-0.5-1.1-0.1-0.3q-0.1-0.1-0.2-0.2 0-0.1-0.2-0.4-0.2-0.2-0.2-0.4 0-0.1 0.2-0.7l0.6-1.3q0.3-0.6 0.4-0.8 0 0 0-0.2 0.1-0.4 0.2-0.6 0.1-0.1 0.2-0.1l0.1 0.1q0 0.3-0.3 0.8-0.2 0.5-0.4 1.1-0.3 0.5-0.5 1-0.1 0.4-0.1 0.7 0 0.1 0.7 1.6 0.7 1.5 0.9 1.8h0.1q0 0.1-0.1 0.2 0 0-0.1 0z"/>
				<path id="path1709" class="s0" d="m7.1 10.4q-0.2 0-0.3-0.1-0.1 0-0.2 0-0.2-0.1-0.2-0.2 0-0.1 0.1-0.1 0.1 0 0.3 0 0.2 0.1 0.3 0.1 0.2 0 0.4-0.2 0.2-0.2 0.3-0.5 0.2-0.6 0.2-1 0-0.5-0.1-1.1-0.2-0.5-0.4-1-0.1-0.1-0.2-0.3-0.3-0.5-0.4-0.8-0.1-0.3-0.3-0.7-0.1-0.5-0.1-1 0-0.4 0.1-0.7 0.1-0.3 0.4-0.6 0.2-0.2 0.6-0.2 0.1 0 0.3 0.1 0.1 0.1 0.1 0.2 0 0.1 0 0.1-0.1 0-0.2-0.1-0.1 0-0.2 0-0.2 0-0.4 0.2-0.2 0.1-0.3 0.4 0 0.2 0 0.5 0 0.4 0.1 0.8 0.1 0.5 0.3 0.9l0.3 0.7 0.1 0.3q0.3 0.4 0.4 0.7 0.1 0.3 0.2 0.7 0.1 0.5 0.1 0.9 0 0.6-0.3 1.3-0.2 0.3-0.4 0.5-0.3 0.2-0.6 0.2z"/>
				<path id="path1711" fill-rule="evenodd" class="s0" d="m11.9 10.2q-0.2 0-0.2 0 0-0.1-0.1-0.2-0.1-0.8-0.1-1v-0.4q-0.3 0-0.6 0l-0.3-0.1q-0.3 0-0.4 0-0.1 0-0.1 0.1 0 0 0 0v0.2q0 0.2-0.1 0.8-0.1 0.2-0.2 0.4 0 0.2-0.1 0.2-0.1 0-0.2-0.1 0 0 0-0.1v-0.1q0.2-0.7 0.3-1.5l0.1-0.6 0.2-0.8q0 0 0.1-0.7 0-0.3 0.2-0.9 0.1-0.8 0.2-1 0-0.1 0-0.4 0-0.4 0.1-0.6 0-0.3 0-0.3h0.1q0 0 0.1 0 0.1 0 0.2-0.1 0 0 0.1 0.1 0.1 0 0.1 0.1 0 0.5 0 1.1 0.1 0.4 0.1 0.6 0.1 1.4 0.6 5.1v0.1q0 0.1-0.1 0.1zm-0.5-1.9q-0.1-1.5-0.4-4.5l-0.6 2.8q-0.2 1.3-0.2 1.6 0 0 0.4 0.1 0.4 0 0.7 0z"/>
				<path id="path1713" class="s0" d="m13.3 10.3q-0.1 0-0.2-0.3 0.1 0 0.1-0.3 0-1 0-2.9 0-1.9 0-2.8v-0.3l0.1-0.4q0 0 0.1 0 0 0 0.1 0 0 0.2 0 0.4v0.4 1.2q0 0.5 0 1.1 0 0.1 0 0.3v0.2q0 0.2 0 0.4 0 0.3 0 0.5v0.4 0.1q0 0 0 0v0.1q0 0.1 0 0.1v1.1q0 0.2 0 0.2 0 0.1 0.1 0.1h0.5q0.2 0 0.3 0 0.1 0 0.1 0h0.1q0 0 0.1 0.1 0 0 0 0.1 0 0.1-0.1 0.1-0.2 0-0.9 0-0.1 0-0.2 0-0.1 0.1-0.2 0.1z"/>
				<path id="path1715" fill-rule="evenodd" class="s0" d="m19.9 10.7q-0.2 0-0.2-0.7v-0.7q0-1.5 0-2.4l-0.1-0.4q0-0.2 0-0.4 0-0.4 0-0.7v-0.6q0-0.4 0-0.5-0.2 0.1-1.3 4.4v0.2q0 0.2-0.1 0.4 0 0.1-0.1 0.2 0 0-0.1 0-0.2 0-0.3 0 0-0.1 0-0.3 0-0.3-0.3-1.5-0.3-1.2-0.6-2.3-0.3-1.1-0.4-1.2 0 0.4-0.1 1.7-0.1 2.5-0.1 3.9v0.4q-0.1 0.1-0.3 0.1 0 0-0.1 0 0-0.1 0-0.1 0-1 0.1-3.4 0.2-2.2 0.2-3.3 0-0.1 0-0.1-0.1-0.1-0.1-0.1 0-0.2 0.3-0.2 0.2 0 0.2 0.2 0.1 0.2 0.1 0.3v0.1q0 0.3 0.3 0.9 0.2 0.4 0.3 0.8 0.1 0.2 0.1 0.4 0.2 0.6 0.2 0.9l0.2 0.3q0 0.1 0.1 0.5 0.1 0.4 0.1 0.7 0.1 0.2 0.1 0.4 0.1-0.1 0.6-2.1 0.6-2 0.7-2.6 0 0 0 0 0 0 0-0.1 0-0.1 0.1-0.4 0.1-0.2 0.3-0.2 0 0 0.1 0 0.1 0.1 0.1 0.2 0 4.4 0.2 4.6v0.6q0 0.2 0 0.5 0 0.7 0 1 0 0.1 0 0.1 0 0 0.1 0 0 0.1 0 0.1 0 0.1-0.1 0.3-0.1 0.1-0.2 0.1zm-0.3-6.5z"/>
				<path id="path1717" fill-rule="evenodd" class="s0" d="m22.8 10.3q-1.2 0-1.2-3.9v-0.3q0-3 0.8-3 0 0 0.1 0 0.4 0.2 0.7 0.2 0.2 0 0.4 0.4 0.2 0.4 0.3 1 0.1 0.6 0.1 1.3 0 0.4 0 0.7v0.6q0 0.5 0 1-0.1 0.6-0.2 1.1-0.1 0.3-0.2 0.5-0.2 0.2-0.3 0.3-0.2 0.1-0.5 0.1zm0-0.3q0.4 0 0.6-0.6 0.2-0.6 0.3-1.2 0-0.6 0-1 0-0.4-0.1-1.2 0-1 0-1.3l-0.1-0.1h0.1q0-0.5-0.3-0.8-0.3-0.4-0.6-0.4-0.5 0-0.6 0.5 0 0.2 0 0.5 0 0.7-0.1 1 0 0.2 0 0.5l-0.1 0.5q0 0.3 0 0.4l0.1 0.5q0 0.5 0 1.1 0.1 0.5 0.2 0.8 0.1 0.3 0.2 0.6 0.2 0.2 0.4 0.2z"/>
				<path id="path1719" fill-rule="evenodd" class="s0" d="m27 10.3q-0.1-0.2-0.2-0.8-0.2-0.6-0.3-1.3-0.1-0.6-0.3-1.2-0.1-0.5-0.2-0.5-0.3 0-0.3 0.1 0 0.8 0.1 2.3 0.1 1 0.1 1.1l-0.1 0.2h-0.1l-0.1-0.1q-0.2-4.9-0.2-6.6 0-0.1 0-0.2 0-0.1 0.1-0.2 0 0 0.2 0 0.5 0 0.8 0.2 0.3 0.3 0.3 0.8v0.8q0 0.2-0.1 0.5-0.1 0.3-0.3 0.6l-0.1 0.3q0.1 0.5 0.4 1.9 0.4 1.4 0.4 1.5 0 0 0 0.1 0.1 0 0.1 0.1 0.1 0.2 0.1 0.3 0 0.1-0.1 0.1zm-1.3-4q0.2 0 0.4-0.2 0.1-0.2 0.2-0.6 0.2-0.6 0.2-1 0-0.2 0-0.4 0-0.2-0.1-0.3-0.1-0.4-0.6-0.4-0.1 0-0.1 0.1 0 0.1 0 0.2 0 0.7 0 1.3 0 0.5 0 1.2z"/>
				<path id="path1721" class="s0" d="m28.7 10.3q-0.2 0-0.2-0.3v-0.1q0 0 0-0.1l-0.1-0.1q0.1-0.2 0.1-0.4 0-0.2 0-0.7v-0.7q0-0.5 0-1.6 0-0.9 0-1.6v-0.6q0-0.3 0-0.7 0-0.1 0.1-0.2 0 0 0.2 0 0.1 0 0.2 0 0 0 0.3 0.1 0.2 0 0.4 0.1 0.2 0 0.2 0.1 0 0.1-0.2 0.2-0.6-0.2-0.8-0.2l-0.1 0.1q0 0.1 0 0.4 0 0.5 0 0.9 0 0.3 0 0.8 0 0.3 0.1 0.3h0.2q0.1 0 0.2 0 0.4 0 0.4 0.1 0 0.2 0 0.2-0.1 0.1-0.2 0.1-0.2 0-0.3-0.1h-0.3-0.1v0.1q0 0.2 0 0.8 0 0.4 0 0.8v0.7q0 0.4 0 0.9 0 0.2 0.1 0.3 0.1 0.1 0.4 0.1l0.2-0.1q0.1 0 0.2 0 0.3 0 0.3 0.2 0 0.2-0.5 0.2z"/>
				<path id="path1723" class="s0" d="m30.5 11.2v-0.1q0 0 0.2-0.1 0.1-0.1 0.3-0.3 0.3-0.1 0.3-0.1 0.1-0.2 0.2-0.6 0.1-0.4 0.1-0.8 0-1.1 0-2.8-0.1-1.5-0.1-2.8v-0.1q-0.1 0-0.3-0.1-0.2 0-0.3 0-0.2-0.1-0.2-0.2 0 0 0.1-0.1 0.1 0 0.1 0 0.2 0 0.7 0.1 0.4 0 0.7 0.2 0.4 0.1 0.4 0.1 0 0.1-0.1 0.2 0 0-0.1 0-0.1 0-0.3-0.1-0.1 0-0.3 0 0 0 0 0.2 0 0.6 0 2.2 0.1 1.2 0.1 2.2v1.1q-0.1 0.2-0.1 0.5 0 0.4-0.3 1-0.1 0.3-0.3 0.4-0.2 0.2-0.5 0.2h-0.1z"/>
				<path id="path1725" class="s0" d="m42 10.2q-0.1 0-0.2-0.1 0-0.1 0-0.2v-0.9-1l-0.1-1.7q0-1.1 0-1.7v-0.3-0.6q0-1.2 0-1.2h-1.2q-0.1 0-0.2 0 0-0.1 0-0.2 0 0 0-0.1 0 0 0.2 0 0.1-0.1 0.4-0.1h1.1 1.1q0.2 0 0.2 0.1 0.1 0 0.1 0.1 0 0.2-0.2 0.2h-0.5-0.5-0.1v0.6 0.8 4.3 0.9 0.8q0 0.1 0 0.2 0 0 0 0 0 0.1-0.1 0.1z"/>
				<path id="path1727" class="s0" d="m44.6 10.3q-0.2 0-0.2-0.3v-0.1q0 0 0-0.1l-0.1-0.1q0.1-0.2 0.1-0.4 0-0.2 0-0.7v-0.7q0-0.5 0-1.6 0-0.9 0-1.6v-0.6q0-0.3 0-0.7 0-0.1 0.1-0.2 0 0 0.2 0 0.1 0 0.2 0 0 0 0.3 0.1 0.2 0 0.4 0.1 0.2 0 0.2 0.1 0 0.1-0.2 0.2-0.6-0.2-0.8-0.2l-0.1 0.1q0 0.1 0 0.4 0 0.5 0 0.9 0 0.3 0 0.8 0 0.3 0.1 0.3h0.2q0.1 0 0.2 0 0.4 0 0.4 0.1 0 0.2-0.1 0.2 0 0.1-0.1 0.1-0.2 0-0.3-0.1h-0.3-0.1v0.1q0 0.2 0 0.8 0 0.4 0 0.8v0.7q0 0.4 0 0.9 0 0.2 0.1 0.3 0.1 0.1 0.4 0.1l0.2-0.1q0.1 0 0.2 0 0.3 0 0.3 0.2 0 0.2-0.5 0.2z"/>
				<path id="path1729" class="s0" d="m47.9 10.2q-0.2-0.1-0.4-0.2-0.1-0.1-0.3-0.3-0.2-0.5-0.2-1.2 0-0.4 0-0.7v-1.2q0-0.7 0-1.3 0-0.5 0.1-0.8 0.1-0.4 0.2-0.7 0.1-0.3 0.3-0.5 0.1 0 0.3-0.1 0.1-0.1 0.3-0.1h0.4q0 0 0.1 0h0.1q0 0.1 0 0.1 0 0 0 0l-0.1 0.2h-0.5q-0.2 0-0.4 0.2-0.1 0.2-0.2 0.5-0.1 0.2-0.1 0.6-0.1 0.4-0.1 0.6 0 0.4 0 0.5v0.1q0 0.5-0.1 1v1.1q0 0.5 0.1 0.8 0 0.5 0.3 0.8 0.2 0.3 0.7 0.3 0.2 0 0.3 0 0.2 0 0.2 0.1 0 0-0.2 0.1-0.1 0.1-0.2 0.2h-0.4z"/>
				<path id="path1731" fill-rule="evenodd" class="s0" d="m52 10.2q0-0.1-0.3-0.1-0.1-1.9-0.1-2.8v-0.1q0-0.2 0-0.4l-0.2-0.1q-0.1 0.1-0.2 0.1-0.1 0-0.3-0.1-0.2 0-0.4 0h-0.1q0 0.4 0 0.7 0 0.3 0 0.6v0.1q0 0.3 0.1 0.9 0 0.5 0 0.8 0 0.2-0.1 0.2 0 0.1-0.1 0.1-0.2 0-0.2-0.6 0-0.6 0-1v-1q0-0.9 0-1 0-0.1 0-0.7 0-0.5 0-1.2v-0.4l-0.1-0.9q0 0 0.1-0.1 0.1-0.1 0.1-0.1 0.2 0 0.2 0.6 0 0.8 0 1.3 0 0.6 0 1.3 0 0.2 0.8 0.2h0.1q0.2 0 0.2-0.1 0.1-0.1 0.1-0.3 0-0.6 0-1.5-0.1-0.9-0.1-1.4 0-0.1 0-0.1 0.1-0.1 0.2-0.1l0.1 0.1q0 0 0.1 0 0 0.8 0 2.5 0.1 1.6 0.1 2.4 0 1.3 0.1 2.1zm-0.7-3.9z"/>
				<path id="path1733" class="s0" d="m53.7 10.2q-0.1-0.1-0.1-0.2 0-0.3 0-0.5 0.1-0.3 0.2-0.8l0.2-0.6q0.6-3 1.3-5.5 0-0.1 0-0.1 0-0.1 0.1-0.2v-0.1q0 0 0.1 0 0.1 0 0.1 0.1 0 0.1 0 0.3l-0.1 0.5-0.1 0.2-0.4 1.8-0.8 3.5-0.2 0.9q0 0 0 0.2-0.1 0-0.1 0.3-0.1 0.1-0.2 0.2z"/>
				<path id="path1735" class="s0" d="m57.2 10.1q-0.1 0-0.1 0-0.1-0.1-0.1-0.2h0.1q0.2-0.4 0.9-1.9 0.7-1.4 0.7-1.5 0-0.3-0.1-0.7-0.2-0.5-0.5-1-0.2-0.6-0.4-1.1-0.2-0.5-0.3-0.8l0.2-0.1q0 0 0.1 0.1 0.1 0.1 0.1 0.3 0 0 0.1 0.3l0.1 0.2q0 0.2 0.3 0.8l0.2 0.5 0.4 0.8q0.2 0.6 0.2 0.7 0 0.2-0.2 0.4-0.2 0.3-0.2 0.4l-0.1 0.3q-0.1 0.1-0.1 0.2l-1 1.9-0.2 0.4h-0.1z"/>
			</g>
		</g>
	</g>
</svg>