<svg version="1.2" xmlns="http://www.w3.org/2000/svg" viewBox="0 0 1000 222" width="1000" height="222">
	<title>isologo-blanco-svg</title>
	<style>
		.s0 { fill: #ffffff } 
	</style>
	<g id="layer1">
		<g id="g1757">
			<g id="flowRoot1645">
				<path id="path1707" class="s0" d="m78.5 160.6q-0.6 0-1-0.2l-1.2-0.1h-0.3q-2.7-4.1-6.7-13.1l-2.9-6.4-8.4-17.5-1.6-3.6q-1.6-2.6-2.1-4.1-0.5-1.5-3.7-5.7-3-4-3-6.5 0-1.9 3.9-11.4l8.7-20q4.6-9.9 5.7-13.6 0-0.5 1-3.2 1.4-5.7 3.2-8.9 1-2 2.2-2.2l2.2 1.7q-0.7 5-4 13.3-3.2 8-7.4 16.4-4.1 8.1-6.9 15.8-2.7 7.5-2.7 11.9 0 1.3 11.4 24.8 11.6 23.5 14.5 28.2l1.5 1.2q-0.4 1-1 2.2-0.7 1-1.4 1z"/>
				<path id="path1709" class="s0" d="m112.3 164.3q-3.1 0-4.7-0.3-1.6-0.2-3.4-1-2-1.1-3-2.9 0-2 1.8-2 1.9 0 4.7 1.2 2.7 1.3 4.6 1.3 3.7 0 6.7-3 3.2-3 4.9-7.9 3.3-9.6 3.3-17 0-8.2-2.3-16.6-2.4-8.4-6.3-15.7-0.8-1.9-2.8-5.6-4.2-8.4-6.4-13.1-2.2-4.7-3.9-10.4-2.3-7.5-2.3-16.3 0-5.5 1.7-10.5 1.8-5.2 5.7-8.9 4.2-3.9 9.4-3.9 2 0 4.9 1.7 2.8 1.5 2.8 3 0 1.4-1 1.4-1 0-2.7-0.9-1.5-0.8-2.8-0.8-3.9 0-6.9 2.8-2.9 2.9-4.2 7.1-1.2 3.5-1.2 7.7 0 6.5 1.7 13.6 1.7 6.9 4.5 12.9l5.9 12.3 1.7 3.5q3.5 7.2 5.4 11.9 2 4.7 3.3 10.6 1.9 7.9 1.9 15.1 0 9.7-5.1 19.8-2.5 4.9-6.7 7.9-4.2 3-9.2 3z"/>
				<path id="path1711" fill-rule="evenodd" class="s0" d="m189 162.1q-2.5 0-3.2-0.7-0.7-0.5-1-3-1.5-12.2-1.9-15.3l-0.8-6.7q-3.7-0.8-8.4-0.8l-6-0.3q-4.1-0.5-5.9-0.5-1 0-1.2 0.8 0 0.5-0.2 0.5l-0.3 3.4q-0.2 3-1.9 12-0.8 4.6-2 7.1-1.3 2.8-2.5 2.8-1 0-2.2-0.8-1.2-1-1.2-2l0.4-1q3-11.9 5-23.7l2-10.4 2.1-12.7q0 0 1.8-11.1 0.8-4.5 3-14.6 2.4-11.4 2.9-15.6 0.2-0.5 0.7-6.2 0.6-6.4 1.1-9.4 0.5-4.4 1-5.1h1.2q0.5 0.2 1.2 0.2 2 0 3-1 1.2 0 2 0.8 1 0.7 1 1.7 0 8.1 1.2 18.5 0.7 5.3 1 8.9 1.9 21.6 9.4 81.2v0.5q0 1.7-1.3 2.5zm-7.7-30.2q-1.7-24.2-6.4-71.3l-9.1 44.8q-3.9 19.3-3.9 24.3 0 0.9 6.4 1.5 6.4 0.7 11.3 0.7z"/>
				<path id="path1713" class="s0" d="m211.4 162.8q-2.3 0-2.8-3.9 0.3-1 0.3-5.5 0-15.5 0.5-45.8 0.5-30.2 0.5-43.7l0.3-6 0.5-5q0-1.2 1.2-1.2 0.9 0 2.4 0.5l0.5 0.2q0 3.6-0.2 6.7v6.5 18.3q0.2 8.1 0.2 18.3-0.2 0.8-0.2 3.7l-0.2 3.5q-0.1 3.4-0.1 6.9 0 3.9 0.1 7l0.2 7.3-0.5 1.3 0.2-0.2q0 0.5-0.2 0.7v0.7q0 1.3 0.5 2.3l-0.5 16.1v1q0 2.9 0.2 3.4 0 0.8 0.8 0.8l8.7 0.4q3.9 0 5.3 0.1 1.5 0 1.8 0h0.5q0.8 0 1.7 1.1 0.8 0.8 0.8 1.8 0 2-2.7 2.2-2.8-0.2-13.9-0.2l0.3 0.2q-1.7 0-3.2 0.1-1.3 0.4-3 0.4z"/>
				<path id="path1715" fill-rule="evenodd" class="s0" d="m316.4 169.3q-3.3 0-3.3-10.7v-11.1q0-24.2-1.1-37.7l-0.5-6.3q-0.6-4.2-0.6-7.3 0-5.7 0.3-10.4l0.3-10.5q0-5.2-0.6-7.8-3.4 2.3-20.4 70.6l-0.1 2.5q-0.5 4.2-1.4 6.7-0.5 1.9-1.5 2.9-0.8 1-2 1-2.7 0-3.9-1.3-1.1-1.4-1.1-4.2 0-4.6-4.4-23.5-4.2-19-9.2-36.4-4.9-17.5-6.8-19.3-0.1 5.8-1.3 27.6-2.4 38.6-2.4 60.8l0.2 6.7q-0.7 2.2-3.5 2.2-0.5 0-1.7-1-1.2-0.9-1.2-1.4 0-15.1 2.7-53 2.5-35.2 2.5-52.9 0-0.8-0.3-1.6-0.5-1-0.5-1.5 0-2.6 4.4-2.6 2.8 0 3.3 2.6 0.7 3.3 0.7 5l0.2 2q0.8 4.4 4.8 13.4 3.2 7.2 4.9 12.6 1 4 1.9 6.6 2.6 9.7 3.5 14.4l2.2 4.4q0.5 2.5 2 8.2 1.5 6.4 2.2 10.4 0.6 4 0.6 7.7 1.9-2.8 10.5-34.2 8.7-31.6 10.2-40.3 0.2-0.3 0.2-0.8 0.1-0.7 0.3-1.7 0.3-2.2 1.5-6.6 1.4-3.3 4-3.3 1.2 0 2.7 1 1.5 1 1.5 2 0 70 2.2 74v8.7q-0.1 3.9-0.1 8.9 0 10.8 1.1 16.1 0.2 0.2 0.2 0.5 0.2 0.4 0.3 0.9 0.2 0.7 0.2 1.5 0 1.8-1.2 3.7-1 1.8-2.5 1.8zm-5.5-102.8h-0.2l-0.3 0.1 0.5 0.2z"/>
				<path id="path1717" fill-rule="evenodd" class="s0" d="m362.7 163.8q-19.7 0-19.7-61.8v-5.8q0-46.9 12.1-46.9 0.9 0 2.4 0.5 5.3 1.9 10.6 2.4 3.1 0.7 6.3 6.5 3.6 6.1 5.2 16 1.9 9.9 1.9 20.3l-0.3 0.8q0 5.6 0.1 9.9l0.2 10.1q0 8.6-0.7 15.4-1 10.4-3.3 18-1.5 4.5-3.6 7.5-1.8 3.1-4.7 5.1-2.7 2-6.5 2zm-0.7-4.9q6.6 0 9.8-9.2 3.1-9.4 3.8-19.1 0.7-10.1 0.7-16.1 0-6.8-1-19.9-0.9-14.6-0.9-19.8l-0.6-1.3 0.3-0.8q0-7.4-4.2-12.8-4-5.4-9.9-5.4-7.7 0-9.2 7.4-0.4 2.5-0.7 7.2 0 12.5-1 17 0 2.5-0.5 7.9l-0.4 7.9q0 3.7 0.2 6.5l0.2 6.7q0 7.9 1.3 18.1 1 7.6 2.4 12.8 1.3 5.2 3.8 8.9 2.5 4 5.9 4z"/>
				<path id="path1719" fill-rule="evenodd" class="s0" d="m429 162.6q-2-2.2-4.4-11.6-2.3-9.4-4.3-21.1-1.4-9.6-3.9-19-2-8.4-3.9-8.4h-0.5q-3.7 0-3.7 2.4 0 12.1 1.4 36.7 0.6 15.1 1.5 17.7l-1.4 2.8h-2.3l-1.4-1.3q-2.6-77.6-2.6-105.8 0-1.8 0.1-3 0.4-1.2 1.2-2.2 0.7-1.1 2.3-1.1 8.6 0 13.8 4.2 5.2 4.2 5.2 12v12.3q0 3.2-2.2 8.6-2 5.3-4.5 9.9l-2.2 4.1q1.9 8.6 7.3 30.9 5.5 22.2 6 23.5 0.2 0.2 0.3 0.9 0.4 0.6 1.2 2 1.2 2.3 1.2 4 0 2.4-1.9 2.4zm-19.8-64.3q3.2 0 5.7-3.2 2.5-3.2 4.1-8.2 2.6-10.3 2.6-16.3 0-3.9-0.5-6.4-0.3-2.5-1.3-5.4-2-5.8-9.6-5.8-0.8 0-1.3 1.5-0.5 1.3-0.5 2.8 0 11.3 0.3 20.3 0.2 9.1 0.2 20.3z"/>
				<path id="path1721" class="s0" d="m455 162.8q-3 0-3.3-3.5v-2.2q0.1-0.9 0.1-2l-0.6-0.7q1.3-3.5 1.3-6.9 0-3.8-0.5-11.1l-0.3-11q0-8.4 0.5-25.2 0.7-15 0.7-25.4l-0.4-10q-0.3-4.6-0.3-10.1 0-2.5 1.2-3.5 1.1-1.2 3.7-1.2 1.6 0 2.6 1 0.4 0.2 4.9 0.7 4.2 0.5 7.2 1.5 3.2 1 3.2 2.5 0 1.7-3.2 3.4-9.5-3.2-13.6-3.2l-0.8 1q0.2 1.5 0.2 7.2 0 7.2-0.4 12.9-0.1 5.9-0.1 13.1 0 4.7 2.3 4.7l2.7-0.2q1.3-0.1 2.8-0.1 6.6 0 6.6 3 0 1.8-0.8 3.2-0.9 1.2-2.6 1.2-2.5 0-3.8-1.4l-5.4-0.8h-0.8l-0.9 0.8v0.5q0.4 2.9 0.4 13.3 0 6.5-0.2 11.9l-0.2 11.9q0 6.6 0.5 13.4 0.2 3.9 1.7 5.2 1.5 1.2 5.5 1.2l3.1-0.2q1.5-0.1 3.3-0.1 4.9 0 4.9 2.2 0 3-7.4 3z"/>
				<path id="path1723" class="s0" d="m484.1 177.4v-0.4l-0.2-0.3q0-0.5 2.9-2.3 2.6-2.1 6-4.1 3.7-2.5 3.9-2.8 2.5-2.9 3.8-8.9 1.5-6.2 1.5-12.1 0-18-0.6-44.6-0.9-24.9-0.9-44.5l-1-1.9q-1.1-0.3-4-0.8-3.2-0.2-5.7-1.3-2.5-0.9-2.5-2.2 0-0.7 1.3-1.4 1.4-0.6 2.2-0.6 3.2 0 10.1 1.1 7 1.2 12.4 2.9 5.5 1.7 5.5 3 0 1-0.8 1.7-0.7 0.5-1.8 0.5-1.2 0-4.6-0.8-2.5-0.9-4.5-0.9-1.5 0-1.5 3.4 0 9.2 0.8 34.9 0.9 19.3 0.9 34.7v18.5q-1.1 2.2-1.1 7 0 7.1-4 16-2.2 4.5-5.7 7.2-3.4 2.8-7.4 2.8h-1.2z"/>
				<path id="path1725" class="s0" d="m666.3 161.6q-1.7 0-2.5-1.2-0.9-1.3-0.9-3.2v-14.9-14.9l-0.3-26.9q-0.5-17.9-0.5-26.8l0.2-4.9v-10.9q0-18.1-0.4-18.1h-19q-1.3 0-2.5-0.7-1-0.7-1-1.8 0-1.4 0.5-1.9 0.5-0.5 2.7-0.8 2.4-0.5 6.7-0.5h16.8l18.5-0.2q2 0 2.7 0.7 0.8 0.6 0.8 2.1 0 2.6-3.2 2.6h-7.5-7.4l-1.5 0.1 0.1 9.8v13.1 68.1 13.9l0.2 12.4v0.4q0 1.3-0.2 2.3-0.1 0.9-0.6 1.4-0.5 0.8-1.7 0.8z"/>
				<path id="path1727" class="s0" d="m707.3 162.8q-3 0-3.3-3.5v-2.2q0.2-0.9 0.2-2l-0.7-0.7q1.3-3.5 1.3-6.9 0-3.8-0.5-11.1l-0.3-11q0-8.4 0.5-25.2 0.7-15 0.7-25.4l-0.4-10q-0.3-4.6-0.3-10.1 0-2.5 1.2-3.5 1.1-1.2 3.7-1.2 1.6 0 2.7 1 0.3 0.2 4.8 0.7 4.2 0.5 7.2 1.5 3.2 1 3.2 2.5 0 1.7-3.2 3.4-9.5-3.2-13.6-3.2l-0.8 1q0.2 1.5 0.2 7.2 0 7.2-0.4 12.9-0.1 5.9-0.1 13.1 0 4.7 2.3 4.7l2.7-0.2q1.3-0.1 2.9-0.1 6.5 0 6.5 3 0 1.8-0.8 3.2-0.9 1.2-2.5 1.2-2.6 0-3.9-1.4l-5.4-0.8h-0.8l-0.9 0.8v0.5q0.4 2.9 0.4 13.3 0 6.5-0.2 11.9l-0.2 11.9q0 6.6 0.5 13.4 0.2 3.9 1.7 5.2 1.5 1.2 5.6 1.2l3-0.2q1.5-0.1 3.3-0.1 4.9 0 4.9 2.2 0 3-7.4 3z"/>
				<path id="path1729" class="s0" d="m759.6 161.8q-3.2-1-5.6-2.9-2.2-1.8-4.2-5.5-3.5-6.7-4.2-19.3-0.3-5.7-0.3-10.1v-19.1q0-10.9 0.7-21.2 0.5-7.5 1.5-12.7 1-5.2 3.2-10.4 2.3-5.4 5.2-7.6 1.1-1 4.5-2.3 2.2-0.9 4.2-1.9h6.7 0.5q0.2 0.2 0.5 0.2l0.9 0.2 0.6 0.5q0.6 0.5 0.6 0.6 0.1 0.4 0.1 1l-2.2 2.6h-7q-3.2 0-5.9 3.2-2.5 3-3.9 7.7-1.3 4.2-2.1 9.9-0.9 5.7-1.1 9.9-0.3 5.3-0.3 7.4l-0.3 0.8q0 9.4-0.4 17l-0.3 16.9q0 7.4 1 13.6 0.8 6.7 4.9 12.1 3.8 5.3 11.9 5.3 2.5 0 4.2-1.5 2.5 0 2.5 1.9 0 1.2-2.2 2.7-2 1.6-4.2 2.5h-5.5z"/>
				<path id="path1731" fill-rule="evenodd" class="s0" d="m825.3 162.4q0-1.6-5.1-1.6-0.8-31.1-0.8-45l-0.5-0.7 0.7-1.5q0-3-0.7-6.2l-2.5-0.7q-1.5 0.5-3.4 0.5-1.3 0-5.5-0.8-2.9-0.8-5.2-0.8l-1.9 0.6q0 5.9-0.2 10.6-0.1 4.7-0.1 10.6l0.3 0.6q0 4.7 0.5 14.1 0.5 9.3 0.5 14 0 1.8-0.6 3.2-0.7 1.1-2.1 1.1-3.7 0-3.7-10 0-8.6 0.2-15.5l0.2-15.2q0-15.3-0.5-16.5 0.8-1.7 0.8-11.1 0-8-0.7-19.6l-0.3-6.6-0.3-13q0-1.2 0.8-2.2 0.8-1 2-1 3.4 0 3.4 9.7 0 11.4-0.2 20.6-0.3 9.3-0.3 20.4 0 2 12.7 2h0.7q3.2 0 4.6-1.2 1.5-1.4 1.5-4.4 0-8.9-1.2-23.1-1-15.5-1-23.2 0-1 0.8-1.7 0.9-0.8 2-0.8l1.6 0.5q1.1 0.2 1.5 0.5 0 13.1 1 39.1 1 26.2 1 39.3 0 19.8 1.2 33.2zm-10.6-62.4l0.3 0.3h-0.3z"/>
				<path id="path1733" class="s0" d="m852 161.1q-1.5-1-1.5-3 0-3.5 0.8-7.9 0.9-4.4 2.7-11.9l2.4-9.4q10.7-47.7 21-86.9l0.3-1.1q0.2-1 0.5-2 0.4-1.1 0.5-1.6l0.9-1.7q0.3-0.5 0.6-0.5 2.6 0 2.6 2.2 0 0.1-0.9 4l-1.7 7.2-0.8 4.2-6.4 28.2-12.6 55.2-3.3 14.6q-0.2 0.5-0.5 2.3-0.4 1.4-1.4 5.3-1 2.5-3.2 2.8z"/>
				<path id="path1735" class="s0" d="m907.3 160.6q-0.7 0-1.5-1-0.7-1.2-0.9-2.2l1.6-1.2q3.5-6.3 14.6-29 11.2-22.8 11.2-24 0-4.4-2.8-11.9-2.7-7.7-6.8-15.8-4.2-8.4-7.5-16.4-3.2-8.3-3.9-13.3l2.2-1.7q1 0.2 2.2 2.2 1.2 1.9 1.8 4 0.2 0.7 1.4 4.7l1 3.4q1.2 3.7 5.7 13.6l3 7 5.6 13q4 9.2 4 11.4 0 2.5-3 6.5-3.2 4.2-3.7 5.7l-2 4.2q-1.5 2.7-1.7 3.5l-14.5 29.9-3.5 7.1-1.3 0.1z"/>
			</g>
		</g>
	</g>
</svg>