<?xml version="1.0" encoding="UTF-8" standalone="no"?>
<!-- Created with Inkscape (http://www.inkscape.org/) -->

<svg
   width="250"
   height="77.365738"
   viewBox="0 0 66.145833 20.469686"
   version="1.1"
   id="svg847"
   inkscape:version="1.1.2 (0a00cf5339, 2022-02-04)"
   sodipodi:docname="atmira.svg"
   inkscape:export-filename="/home/marcos/Desktop/atmira.png"
   inkscape:export-xdpi="96"
   inkscape:export-ydpi="96"
   xmlns:inkscape="http://www.inkscape.org/namespaces/inkscape"
   xmlns:sodipodi="http://sodipodi.sourceforge.net/DTD/sodipodi-0.dtd"
   xmlns="http://www.w3.org/2000/svg"
   xmlns:svg="http://www.w3.org/2000/svg">
  <sodipodi:namedview
     id="namedview849"
     pagecolor="#ffffff"
     bordercolor="#666666"
     borderopacity="1.0"
     inkscape:pageshadow="2"
     inkscape:pageopacity="0.0"
     inkscape:pagecheckerboard="false"
     inkscape:document-units="mm"
     showgrid="false"
     fit-margin-top="5"
     fit-margin-left="5"
     fit-margin-right="5"
     fit-margin-bottom="5"
     units="px"
     lock-margins="true"
     inkscape:zoom="4"
     inkscape:cx="50.125"
     inkscape:cy="69.875"
     inkscape:window-width="1920"
     inkscape:window-height="1135"
     inkscape:window-x="1"
     inkscape:window-y="1080"
     inkscape:window-maximized="1"
     inkscape:current-layer="layer1" />
  <defs
     id="defs844">
    <clipPath
       id="clip-path-3-0-1">
      <rect
         class="cls-1"
         x="91.120003"
         y="392.04999"
         width="467.76001"
         height="64.82"
         id="rect7-3-8" />
    </clipPath>
    <clipPath
       id="clip-path-4-5">
      <rect
         class="cls-1"
         x="91.120003"
         y="392.04999"
         width="467.76001"
         height="64.809998"
         id="rect10-7" />
    </clipPath>
    <clipPath
       id="clip-path-5-6-0">
      <rect
         class="cls-1"
         x="77.889999"
         y="664.90997"
         width="494.20999"
         height="146.06"
         id="rect131-9" />
    </clipPath>
    <clipPath
       id="clipPath1301">
      <rect
         class="cls-1"
         x="77.889999"
         y="664.90997"
         width="494.20999"
         height="146.06"
         id="rect1299" />
    </clipPath>
  </defs>
  <g
     inkscape:label="Layer 1"
     inkscape:groupmode="layer"
     id="layer1"
     transform="translate(-22.112317,-59.382876)">
    <g
       transform="matrix(0.13781235,0,0,0.13781235,10.33086,-32.192383)"
       class="cls-40"
       clip-path="url(#clip-path-5-6-0)"
       id="g394">
      <g
         class="cls-40"
         clip-path="url(#clip-path-5-6-0)"
         id="g392">
        <path
           class="cls-41"
           d="m 169.51,792.91 1.54,0.92 q -3.27,9.57 -14.94,9.58 a 17.34,17.34 0 0 1 -10.7,-3.2 24.05,24.05 0 0 1 -5.8,-7.3 59.91,59.91 0 0 1 -9.16,7.21 27.65,27.65 0 0 1 -13.69,3.29 q -10,0 -15.82,-4.84 a 16.05,16.05 0 0 1 -5.84,-13 17.79,17.79 0 0 1 4.79,-12.68 21.45,21.45 0 0 1 6.25,-4.52 60.06,60.06 0 0 1 10.23,-3.42 q 7.88,-2 11.63,-3.37 a 24.24,24.24 0 0 0 6.29,-3.29 11,11 0 0 0 4,-4.92 22.47,22.47 0 0 0 1.09,-7.85 q 0,-10.66 -4,-15.6 a 13.17,13.17 0 0 0 -4.66,-3.65 13.58,13.58 0 0 0 -5.93,-1.36 11.59,11.59 0 0 0 -11,7.2 l -2.26,5.29 a 6.53,6.53 0 0 1 -6.52,4.29 7.06,7.06 0 0 1 -5.16,-2 6.94,6.94 0 0 1 -2.08,-5.16 q 0,-4.65 6.53,-7.84 a 39.16,39.16 0 0 1 8.75,-2.69 51.66,51.66 0 0 1 10.2,-1 50.22,50.22 0 0 1 11.7,1.46 39.94,39.94 0 0 1 10.15,3.74 q 5.9,3.38 7.35,8.76 a 40.7,40.7 0 0 1 0.72,9.21 v 33.75 q 0,8.58 0.73,11.68 1.53,6.46 7.42,6.47 a 8.18,8.18 0 0 0 4.39,-1 15.86,15.86 0 0 0 3.76,-4 m -30,-35.94 a 60.52,60.52 0 0 1 -10.74,7.21 94.24,94.24 0 0 0 -9.11,5.38 24.06,24.06 0 0 0 -4.6,4.38 19.1,19.1 0 0 0 -4.24,12.32 15,15 0 0 0 3.29,9.94 10.45,10.45 0 0 0 8.35,3.92 14.13,14.13 0 0 0 8.34,-2.78 17.22,17.22 0 0 0 5.92,-7.43 q 2.79,-6.12 2.79,-17.7 z"
           id="path380"
           inkscape:connector-curvature="0"
           style="fill:#88664c" />
        <path
           class="cls-41"
           d="m 194.58,724.23 h 23 v 3.46 h -23 v 53.09 q 0,9.59 3.25,13.69 a 11.48,11.48 0 0 0 4.51,3.55 14.23,14.23 0 0 0 6,1.28 12.52,12.52 0 0 0 6.77,-1.69 23.35,23.35 0 0 0 6,-6.15 l 1.35,1.18 a 18.81,18.81 0 0 1 -8.37,8.12 30.46,30.46 0 0 1 -13.45,2.65 q -10.68,0 -15.57,-4.2 a 10.16,10.16 0 0 1 -3.43,-5.25 c -0.55,-2 -0.82,-5.7 -0.82,-11 v -55.27 h -9.69 v -1.46 a 25.45,25.45 0 0 0 10.87,-7.38 36.5,36.5 0 0 0 4.82,-6.71 47.62,47.62 0 0 0 3.47,-8.62 l 0.91,-3 h 3.37 z"
           id="path382"
           inkscape:connector-curvature="0"
           style="fill:#88664c" />
        <path
           class="cls-41"
           d="m 245.08,722.86 a 71.66,71.66 0 0 1 2.09,12.68 41,41 0 0 1 12.81,-9.4 34.88,34.88 0 0 1 14.8,-3.28 q 8.52,0 14.22,4.38 3.44,2.64 7.87,9.21 a 49.07,49.07 0 0 1 13.85,-10.31 34.83,34.83 0 0 1 15,-3.28 q 10.86,0 17.7,6 a 19.76,19.76 0 0 1 6.83,15.62 v 30.89 l 0.09,6.92 a 41,41 0 0 0 0.72,9.07 9.83,9.83 0 0 0 2.72,4.78 q 2.63,2.46 9.41,3.74 v 1.91 h -40 v -1.91 q 5.43,-0.74 7.74,-2.05 a 9.94,9.94 0 0 0 3.85,-4.51 20.05,20.05 0 0 0 1.4,-6.33 q 0.42,-4.25 0.41,-12.17 v -17.4 a 122.4,122.4 0 0 0 -0.63,-14.76 22.71,22.71 0 0 0 -2.44,-7.92 Q 329.29,727 318.91,727 q -11.21,0 -16.26,8.39 -4.42,7.18 -4.42,22.41 v 17.58 l 0.09,6.92 a 40.9,40.9 0 0 0 0.72,9.07 9.83,9.83 0 0 0 2.72,4.78 q 2.53,2.46 9.41,3.74 v 1.91 h -40 v -1.91 q 5.43,-0.74 7.74,-2.05 a 9.94,9.94 0 0 0 3.85,-4.51 20.05,20.05 0 0 0 1.4,-6.33 q 0.41,-4.25 0.41,-12.17 v -16.89 a 128.3,128.3 0 0 0 -0.68,-15.62 20.9,20.9 0 0 0 -2.57,-8.07 13.8,13.8 0 0 0 -5.6,-5.14 17.39,17.39 0 0 0 -8.13,-1.87 19.88,19.88 0 0 0 -9.66,2.46 19,19 0 0 0 -7.14,6.65 25.28,25.28 0 0 0 -3.47,9 71.15,71.15 0 0 0 -1,13.53 v 16.67 l 0.09,6.74 a 40.9,40.9 0 0 0 0.72,9.07 9.45,9.45 0 0 0 2.81,4.78 q 2.54,2.46 9.32,3.74 v 1.91 h -40 v -1.91 q 5.43,-0.74 7.79,-2.05 a 9.38,9.38 0 0 0 3.8,-4.5 20.05,20.05 0 0 0 1.4,-6.33 q 0.41,-4.23 0.41,-12.24 v -22.5 a 129,129 0 0 0 -0.45,-13.15 14.39,14.39 0 0 0 -2,-6.14 9.47,9.47 0 0 0 -3.71,-3.68 16,16 0 0 0 -6.24,-1.41 V 726 Z"
           id="path384"
           inkscape:connector-curvature="0"
           style="fill:#88664c" />
        <path
           class="cls-41"
           d="m 368.47,726.14 26.07,-3.28 v 52.54 l 0.1,6.91 a 40.71,40.71 0 0 0 0.72,9 9.42,9.42 0 0 0 2.81,4.77 q 2.52,2.46 9.32,3.73 v 1.91 h -40 v -1.91 a 23.23,23.23 0 0 0 7.78,-2 9.4,9.4 0 0 0 3.81,-4.5 19.83,19.83 0 0 0 1.4,-6.3 q 0.4,-4.23 0.41,-12.21 v -22.42 a 127.42,127.42 0 0 0 -0.46,-13.11 14.16,14.16 0 0 0 -2,-6.13 9.58,9.58 0 0 0 -3.71,-3.67 16.08,16.08 0 0 0 -6.25,-1.41 z m 18.88,-36 a 8,8 0 0 1 -5.87,-2.28 8.17,8.17 0 0 1 0,-11.45 8.49,8.49 0 0 1 11.66,0 8.17,8.17 0 0 1 0,11.45 8,8 0 0 1 -5.87,2.28"
           id="path386"
           inkscape:connector-curvature="0"
           style="fill:#88664c" />
        <path
           class="cls-41"
           d="m 438.27,736.9 a 26.33,26.33 0 0 1 7.33,-8.66 28.63,28.63 0 0 1 17.11,-5.38 q 5.88,0 9,2.64 a 7.36,7.36 0 0 1 2.81,5.83 5.6,5.6 0 0 1 -1.68,4.2 5.89,5.89 0 0 1 -4.3,1.64 6.93,6.93 0 0 1 -5.34,-2.55 l -2.8,-3.1 a 10.5,10.5 0 0 0 -7.88,-3.55 q -6.15,0 -9.6,8 -3.45,8 -3.44,22.32 v 17 l 0.1,6.93 a 40.91,40.91 0 0 0 0.72,9.06 9.45,9.45 0 0 0 2.81,4.78 q 2.52,2.46 9.32,3.74 v 1.91 h -40 v -1.91 c 3.62,-0.49 6.21,-1.16 7.78,-2 a 9.4,9.4 0 0 0 3.81,-4.5 19.83,19.83 0 0 0 1.4,-6.3 q 0.4,-4.23 0.41,-12.21 v -22.41 a 124.53,124.53 0 0 0 -0.46,-13.11 14.16,14.16 0 0 0 -2,-6.13 9.68,9.68 0 0 0 -3.71,-3.68 16.28,16.28 0 0 0 -6.25,-1.4 v -1.92 l 23.34,-3.28 a 76.78,76.78 0 0 1 1.56,14"
           id="path388"
           inkscape:connector-curvature="0"
           style="fill:#88664c" />
        <path
           class="cls-41"
           d="m 554.32,792.91 1.54,0.92 q -3.27,9.57 -14.94,9.58 a 17.34,17.34 0 0 1 -10.7,-3.2 24.05,24.05 0 0 1 -5.8,-7.3 59.42,59.42 0 0 1 -9.16,7.21 27.64,27.64 0 0 1 -13.68,3.29 q -10,0 -15.82,-4.84 a 16,16 0 0 1 -5.85,-13 17.79,17.79 0 0 1 4.8,-12.68 21.4,21.4 0 0 1 6.24,-4.52 60.37,60.37 0 0 1 10.23,-3.42 q 7.88,-2 11.63,-3.37 a 24.07,24.07 0 0 0 6.29,-3.29 11,11 0 0 0 4,-4.92 22.75,22.75 0 0 0 1.08,-7.85 q 0,-10.66 -4,-15.6 a 13.17,13.17 0 0 0 -4.66,-3.65 13.58,13.58 0 0 0 -5.93,-1.36 11.56,11.56 0 0 0 -11,7.2 l -2.27,5.29 a 6.53,6.53 0 0 1 -6.51,4.29 7,7 0 0 1 -5.16,-2 7,7 0 0 1 -2.09,-5.16 q 0,-4.65 6.53,-7.84 a 39.32,39.32 0 0 1 8.75,-2.69 51.66,51.66 0 0 1 10.2,-1 50.22,50.22 0 0 1 11.7,1.46 39.94,39.94 0 0 1 10.26,3.6 q 5.89,3.38 7.35,8.76 A 40.7,40.7 0 0 1 538,746 v 33.75 q 0,8.58 0.73,11.68 1.53,6.46 7.42,6.47 a 8.15,8.15 0 0 0 4.39,-1 15.68,15.68 0 0 0 3.76,-4 m -30,-35.94 a 60.08,60.08 0 0 1 -10.73,7.21 94.75,94.75 0 0 0 -9.12,5.38 24.35,24.35 0 0 0 -4.6,4.38 19.1,19.1 0 0 0 -4.24,12.32 15,15 0 0 0 3.39,9.95 10.45,10.45 0 0 0 8.35,3.92 14.16,14.16 0 0 0 8.35,-2.78 17.27,17.27 0 0 0 5.91,-7.43 q 2.79,-6.12 2.79,-17.7 z"
           id="path390"
           inkscape:connector-curvature="0"
           style="fill:#88664c" />
      </g>
    </g>
    <path
       style="fill:#ff00ff;stroke:#e8307a;stroke-width:0.170492;stroke-opacity:1"
       d="m 170.40681,71.013188 c 0,-0.324707 0.10893,-0.445086 0.46885,-0.518125 1.60492,-0.325686 3.25217,-0.822955 3.75448,-1.133397 1.24482,-0.76934 2.08721,-2.490853 2.45995,-5.027125 0.3121,-2.123695 0.31738,-23.785824 0.006,-25.632845 -0.28909,-1.716195 -1.20114,-3.562774 -2.13504,-4.322697 -0.78991,-0.642761 -1.9848,-1.106505 -3.23318,-1.254822 -0.70817,-0.08414 -0.80984,-0.146335 -0.80984,-0.495448 0,-0.27449 0.11987,-0.426515 0.38361,-0.486543 1.22024,-0.277725 11.46765,-1.603698 11.56808,-1.496862 0.13469,0.143298 0.5979,3.445209 0.79346,5.656084 l 0.127,1.435784 0.66876,-1.009553 c 2.55125,-3.851346 7.01036,-6.209561 11.74154,-6.209561 2.73509,0 4.62887,0.719174 5.6119,2.13115 1.57188,2.257796 0.30741,5.110133 -2.25168,5.079239 -1.21529,-0.01467 -1.84062,-0.398903 -3.75083,-2.304685 -2.02849,-2.023795 -2.75587,-2.391379 -4.70978,-2.380107 -1.38408,0.008 -2.31831,0.439633 -3.35861,1.5518 -2.03287,2.173298 -3.04628,5.862434 -3.37604,12.28984 -0.19856,3.87011 -0.0596,16.227682 0.20384,18.129081 0.40846,2.947973 1.8115,4.360541 5.18813,5.223382 1.06642,0.272506 1.19918,0.35251 1.24739,0.751678 l 0.0539,0.446715 h -10.3258 -10.32609 z"
       id="path562"
       transform="matrix(0.26458333,0,0,0.26458333,22.112317,59.382876)" />
    <path
       style="fill:#e8307a;stroke:#e8307a;stroke-width:0.170492;stroke-opacity:1;fill-opacity:1"
       d="M 14.15084,72.165938 C 9.7250557,71.660676 6.4433669,69.132281 5.3649401,65.396793 4.9554174,63.978277 5.0861245,61.181554 5.6284986,59.757465 c 0.7402172,-1.943557 2.1454491,-3.680393 3.950792,-4.883095 1.1239264,-0.748749 3.8288554,-1.74173 7.1289304,-2.617038 4.572398,-1.212777 6.496237,-1.900542 8.061611,-2.881993 2.671179,-1.674764 3.278854,-3.07139 3.271762,-7.51954 -0.0051,-3.174009 -0.288381,-4.717041 -1.20109,-6.541438 -1.704557,-3.407209 -5.904213,-4.894417 -9.216478,-3.263794 -1.57704,0.776374 -2.398015,1.791569 -3.471502,4.292759 -0.492886,1.148411 -1.054737,2.30251 -1.248557,2.564665 -0.524416,0.709312 -1.587546,1.157642 -2.745129,1.157642 -1.5665466,0 -2.7169226,-0.729691 -3.3598127,-2.131151 -1.7902551,-3.902643 4.2574137,-7.331959 12.8928067,-7.310836 1.92829,0.0047 3.033877,0.09951 4.49443,0.38536 6.734618,1.31805 10.140412,3.753281 10.758618,7.69269 0.10453,0.666101 0.175965,5.495171 0.179064,12.104936 0.0069,14.655785 0.135216,16.111015 1.556953,17.653416 0.779614,0.845782 1.528529,1.150257 2.873259,1.168138 1.416747,0.01884 2.400186,-0.436811 3.452448,-1.599599 0.782246,-0.86441 0.937994,-0.966358 1.192279,-0.780419 0.272759,0.199445 0.263462,0.272141 -0.13779,1.077349 -1.271751,2.55207 -3.869131,3.956361 -7.320055,3.957634 -3.32993,0.0012 -6.079517,-1.558236 -7.881216,-4.469937 -0.333634,-0.539181 -0.640593,-0.980329 -0.68213,-0.980329 -0.04154,0 -0.586864,0.450665 -1.211835,1.001477 -2.830731,2.494836 -4.97904,3.640324 -7.846958,4.184037 -1.311527,0.248644 -3.510424,0.313946 -4.968059,0.147539 z m 7.291107,-1.727103 c 3.609954,-1.123545 5.848184,-4.507936 6.500245,-9.82891 0.191742,-1.564665 0.270194,-12.360674 0.08982,-12.360674 -0.05455,0 -0.418974,0.259152 -0.809838,0.575892 -1.135279,0.919985 -3.115009,2.187832 -5.228701,3.348534 -4.21271,2.313343 -5.811115,3.55286 -7.136037,5.533783 -1.316821,1.96881 -1.6458,3.134619 -1.636933,5.80083 0.0062,1.874368 0.06524,2.361102 0.382393,3.154103 0.718763,1.797199 2.376356,3.47919 3.849472,3.906133 0.934561,0.270858 2.908813,0.206679 3.989577,-0.129691 z"
       id="path1453"
       transform="matrix(0.26458333,0,0,0.26458333,22.112317,59.382876)" />
    <path
       style="fill:#e8307a;fill-opacity:1;stroke:#e8307a;stroke-width:0.170492;stroke-opacity:1"
       d="m 56.856361,72.053534 c -4.248295,-0.695089 -6.426434,-2.532671 -6.895499,-5.817371 -0.103723,-0.726332 -0.17175,-7.482779 -0.173805,-17.262321 l -0.0034,-16.068876 h -2.557381 c -2.45414,0 -2.557381,-0.01394 -2.557381,-0.345204 0,-0.220579 0.169265,-0.408265 0.468853,-0.519879 3.269199,-1.217973 6.536108,-4.51908 8.297634,-8.384493 0.324303,-0.711637 0.834782,-2.067185 1.134398,-3.012329 l 0.544756,-1.718443 h 0.829647 0.829648 v 6.137714 6.137714 h 5.967222 5.967222 v 0.85246 0.85246 h -5.973174 -5.973175 l 0.05595,15.5574 c 0.05163,14.357232 0.07948,15.6356 0.360959,16.571069 0.696007,2.313093 1.811284,3.703541 3.686808,4.596449 1.047971,0.498923 1.219388,0.527596 3.154103,0.527596 1.878224,0 2.122759,-0.03776 2.983611,-0.46077 0.822931,-0.404373 2.412821,-1.817812 3.359205,-2.986392 0.260749,-0.321967 0.349696,-0.345371 0.597281,-0.157147 0.268259,0.203941 0.246447,0.287177 -0.280178,1.069171 -1.323668,1.965531 -3.580546,3.455033 -6.318935,4.170389 -1.735668,0.453411 -5.522779,0.585028 -7.504389,0.260803 z"
       id="path1529"
       transform="matrix(0.26458333,0,0,0.26458333,22.112317,59.382876)" />
    <path
       style="fill:#e8307a;fill-opacity:1;stroke:#e8307a;stroke-width:0.170492;stroke-opacity:1"
       d="m 69.73125,71.029245 c 0,-0.367691 0.110954,-0.427447 1.150821,-0.619781 3.394413,-0.627834 4.678917,-1.826579 5.451182,-5.087234 0.225007,-0.950023 0.279967,-2.917421 0.34193,-12.239843 0.0953,-14.337762 -0.01087,-15.632865 -1.457953,-17.785437 -0.818761,-1.217925 -1.819515,-1.824205 -3.585368,-2.172097 -1.220998,-0.24055 -1.389136,-0.317877 -1.389136,-0.638872 0,-0.352241 0.224807,-0.39383 6.336586,-1.172269 3.485122,-0.44389 6.391494,-0.746958 6.458604,-0.673484 0.187289,0.205045 0.83581,3.648772 0.956898,5.081243 0.05929,0.701418 0.158217,1.275305 0.219833,1.275305 0.06162,0 0.376425,-0.275736 0.699574,-0.612746 1.106065,-1.153508 3.930204,-3.140851 5.673024,-3.992098 0.958216,-0.468022 2.507622,-1.056383 3.443126,-1.307469 1.486259,-0.398906 2.03442,-0.45776 4.343544,-0.466354 2.053355,-0.0076 2.886495,0.05881 3.736295,0.297997 2.67103,0.751812 4.66993,2.248697 6.78489,5.080896 0.62069,0.831188 1.17119,1.51125 1.22333,1.51125 0.0521,0 0.51899,-0.415852 1.03744,-0.924116 2.53771,-2.48781 6.24641,-4.682954 9.29677,-5.502659 1.52551,-0.409943 2.00991,-0.459019 4.60328,-0.466369 2.52002,-0.0071 3.07333,0.04224 4.23872,0.378308 3.36783,0.9712 5.89815,2.909474 7.30752,5.597713 1.15014,2.193787 1.15449,2.239956 1.16368,12.364699 0.01,10.855765 0.1874,16.216737 0.57905,17.485926 0.58577,1.89823 2.10834,3.104149 4.82554,3.821958 1.25727,0.332134 1.40683,0.414214 1.40683,0.772051 v 0.400408 h -10.31477 -10.31477 v -0.418506 c 0,-0.350777 0.10347,-0.435949 0.63935,-0.52631 1.40198,-0.236403 3.02413,-0.771349 3.64616,-1.202414 1.26137,-0.874133 2.0266,-2.461385 2.37591,-4.928191 0.2787,-1.968153 0.40099,-16.240413 0.1731,-20.203308 -0.23385,-4.066625 -0.48258,-5.368649 -1.38804,-7.265842 -1.01393,-2.124441 -2.64748,-3.464964 -4.97863,-4.085554 -1.21605,-0.323731 -4.54788,-0.313835 -5.84515,0.01736 -4.40084,1.123539 -6.6891,4.429539 -7.60886,10.993052 -0.30469,2.17429 -0.28854,19.209079 0.0201,21.226261 0.47555,3.107785 1.64061,4.29872 5.11506,5.228648 1.22021,0.326584 1.37229,0.411479 1.37229,0.766046 v 0.398758 H 107.15426 96.839487 v -0.412683 c 0,-0.330112 0.110869,-0.433969 0.554099,-0.519058 2.913994,-0.559412 4.094094,-1.146938 4.920204,-2.449569 1.19923,-1.890992 1.34661,-3.164276 1.46365,-12.644944 0.10336,-8.372211 -0.0829,-13.651754 -0.56533,-16.026253 -0.38526,-1.896145 -1.23515,-3.540028 -2.36321,-4.571014 -2.755881,-2.518722 -6.985151,-2.923944 -10.814496,-1.036178 -2.107756,1.039069 -3.480534,2.46903 -4.588799,4.779947 -1.574999,3.284134 -1.735543,4.774886 -1.728742,16.052394 0.0064,10.563338 0.122689,11.808191 1.241114,13.282478 0.940774,1.240112 2.481606,2.050455 4.933958,2.594838 0.357522,0.07936 0.468854,0.204517 0.468854,0.527059 v 0.422983 H 80.046019 69.73125 Z"
       id="path1568"
       transform="matrix(0.26458333,0,0,0.26458333,22.112317,59.382876)" />
    <path
       style="fill:#e8307a;fill-opacity:1;stroke:#e8307a;stroke-width:0.170492;stroke-opacity:1"
       d="m 146.96415,71.00994 c 0,-0.234426 0.0416,-0.42623 0.0924,-0.42623 0.0508,0 0.67368,-0.120059 1.38409,-0.266798 3.3974,-0.701752 4.62283,-2.047596 5.20152,-5.712619 0.32553,-2.061748 0.32752,-24.430095 0.002,-26.158335 -0.60276,-3.20328 -2.35504,-4.969205 -5.27087,-5.311903 -0.79817,-0.09381 -0.89801,-0.14996 -0.89801,-0.505052 0,-0.27594 0.11865,-0.425297 0.3836,-0.482884 0.33941,-0.07377 12.73748,-1.628041 12.98651,-1.628041 0.0543,0 0.0993,7.422797 0.1,16.495106 0.001,17.9656 0.0433,18.912041 0.90306,20.370338 0.84094,1.426317 2.15463,2.272217 4.4185,2.845122 1.11531,0.282244 1.24665,0.359402 1.29513,0.760812 l 0.054,0.446715 h -10.3261 -10.32609 z"
       id="path1607"
       transform="matrix(0.26458333,0,0,0.26458333,22.112317,59.382876)" />
    <path
       style="fill:#e8307a;fill-opacity:1;stroke:#e8307a;stroke-width:0.170492;stroke-opacity:1"
       d="m 155.75996,13.030153 c -2.27378,-0.8331 -3.29383,-3.3888057 -2.24855,-5.6337013 1.4656,-3.14758 6.20045,-2.9795096 7.56122,0.2683962 0.13582,0.3241852 0.24695,1.0256903 0.24695,1.5588999 0,2.8353422 -2.86198,4.7948022 -5.55962,3.8064052 z"
       id="path1646"
       transform="matrix(0.26458333,0,0,0.26458333,22.112317,59.382876)" />
    <path
       style="fill:#e8307a;fill-opacity:1;stroke:#e8307a;stroke-width:0.170492;stroke-opacity:1"
       d="m 170.53062,71.064743 c 0.0976,-0.29284 0.38835,-0.410364 2.07843,-0.840155 2.07465,-0.527592 2.92302,-1.119485 3.6395,-2.539243 1.1336,-2.246318 1.13631,-2.284458 1.14269,-16.111499 0.006,-13.524822 0.0205,-13.296618 -0.96345,-15.392696 -0.84946,-1.80955 -2.12863,-2.755189 -4.26416,-3.152333 -0.62833,-0.116849 -0.98961,-0.268368 -0.98961,-0.415032 0,-0.127048 0.0959,-0.264945 0.21312,-0.306438 0.71622,-0.253538 11.16429,-1.550674 11.31073,-1.404236 0.11984,0.119835 0.5128,2.713528 0.79153,5.224385 l 0.21579,1.94384 1.13082,-1.537378 c 2.26278,-3.076273 5.48653,-5.064193 9.18395,-5.663259 2.38241,-0.386005 4.99129,-0.07516 6.42604,0.765663 0.90877,0.532572 1.69896,1.699032 1.85475,2.737919 0.0886,0.590637 0.0288,0.909546 -0.29123,1.554663 -0.52887,1.065976 -1.30798,1.579308 -2.397,1.579308 -1.12782,0 -1.60676,-0.282489 -3.49875,-2.063635 -2.2238,-2.09352 -2.81088,-2.41423 -4.59033,-2.507628 -1.2784,-0.0671 -1.51273,-0.02902 -2.35391,0.382534 -2.36405,1.156623 -3.88022,4.261528 -4.62627,9.473983 -0.21272,1.486181 -0.30006,3.75542 -0.36093,9.377062 -0.0856,7.906317 0.0986,12.821765 0.53398,14.250809 0.58018,1.90428 1.73798,2.906363 4.34435,3.760066 1.07126,0.350886 1.6537,0.630016 1.68983,0.809837 0.0502,0.249752 -0.8584,0.274398 -10.11587,0.274398 -7.73218,0 -10.15492,-0.04818 -10.104,-0.200935 z"
       id="path1685"
       transform="matrix(0.26458333,0,0,0.26458333,22.112317,59.382876)" />
    <path
       style="fill:#e8307a;fill-opacity:1;stroke:#e8307a;stroke-width:0.170492;stroke-opacity:1"
       d="m 214.2299,72.110525 c -5.86732,-0.921426 -9.22604,-4.877355 -8.62386,-10.157233 0.28617,-2.509076 1.4314,-4.678084 3.28414,-6.219944 1.7476,-1.454366 3.79067,-2.303239 8.57924,-3.564573 5.32638,-1.402995 7.36414,-2.25686 9.03889,-3.787484 0.49678,-0.454033 1.06814,-1.166151 1.26969,-1.582486 1.23596,-2.553167 1.02092,-8.202985 -0.43008,-11.2992 -1.81196,-3.866468 -6.66112,-5.314686 -10.07074,-3.007659 -1.15382,0.780702 -1.77493,1.688579 -2.80978,4.107018 -0.93768,2.191339 -1.2605,2.639689 -2.27525,3.159943 -1.01694,0.521372 -2.73808,0.384169 -3.70255,-0.295155 -0.98052,-0.690621 -1.51225,-1.740543 -1.51225,-2.986 0,-1.289437 0.68485,-2.338159 2.17619,-3.332428 2.71877,-1.812598 8.68363,-2.93714 13.08285,-2.466482 8.10087,0.866684 12.57125,3.610973 13.20792,8.1081 0.0978,0.691103 0.17096,6.073335 0.17373,12.786904 0.003,6.596965 0.0783,12.235467 0.17546,13.083121 0.39137,3.41575 1.6827,4.90189 4.25931,4.90189 1.40981,0 2.0546,-0.292329 3.18805,-1.445362 0.94462,-0.960942 1.08951,-1.050884 1.36393,-0.846663 0.29179,0.21714 0.28309,0.274836 -0.17502,1.161271 -0.62368,1.20681 -1.77711,2.367321 -2.89786,2.915654 -2.16209,1.057811 -5.42105,1.215446 -7.6612,0.370573 -2.21245,-0.834431 -3.38453,-1.932995 -5.17862,-4.853805 -0.0195,-0.03168 -0.72317,0.514845 -1.56381,1.214507 -2.68296,2.23303 -4.19159,3.100004 -6.44917,3.706177 -1.54325,0.414371 -4.83673,0.582546 -6.44921,0.329316 z m 7.96102,-1.837414 c 2.68103,-0.942306 4.66032,-3.291206 5.64941,-6.70438 0.65971,-2.276521 0.80997,-4.303258 0.75462,-10.178386 l -0.0504,-5.344167 -0.85246,0.675123 c -1.33493,1.057226 -3.23656,2.275268 -5.3705,3.439948 -4.1113,2.243894 -6.08505,3.824412 -7.29053,5.838011 -2.95422,4.93468 -1.23822,11.429254 3.32394,12.58014 0.91361,0.230477 2.71878,0.08634 3.83587,-0.306289 z"
       id="path1724"
       transform="matrix(0.26458333,0,0,0.26458333,22.112317,59.382876)"
       inkscape:export-filename="/home/marcos/Desktop/path1724.png"
       inkscape:export-xdpi="96"
       inkscape:export-ydpi="96" />
  </g>
</svg>
