<svg width="276" height="98" viewBox="0 0 276 98" fill="none" xmlns="http://www.w3.org/2000/svg">
<path d="M31.1999 42.4042H20V53.6041H31.1999V42.4042Z" fill="#3CFF64"/>
<path d="M42.3998 31.2076H31.1999V42.4075H42.3998V31.2076Z" fill="#3CFF64"/>
<path d="M42.3998 53.6041H31.1999V64.804H42.3998V53.6041Z" fill="#3CFF64"/>
<path d="M87.1923 53.6039H98.3922V42.4041H87.1923V53.6039Z" fill="#3CFF64"/>
<path d="M75.9923 64.8001H87.1922V53.6002H75.9923V64.8001Z" fill="#3CFF64"/>
<path d="M75.9933 42.4039H87.1932V31.204H75.9933V42.4039Z" fill="#3CFF64"/>
<path d="M53.596 20H42.3961V31.1999H53.596V20Z" fill="#3CFF64"/>
<path d="M53.596 64.8001H42.3961V76H53.596V64.8001Z" fill="#3CFF64"/>
<path d="M75.999 20H64.799V31.1999H75.999V20Z" fill="#3CFF64"/>
<path d="M75.999 64.8001H64.799V76H75.999V64.8001Z" fill="#3CFF64"/>
<path d="M120.797 48.4176C120.797 41.5203 125.589 36.6403 132.082 36.6403C137.131 36.6403 141.708 39.4612 142.47 44.8789H137.904C137.366 42.5498 135.217 40.6246 132.082 40.6246C128.131 40.6246 125.319 43.9394 125.319 48.4176C125.319 52.7158 127.916 55.9405 132.124 55.9405C135.215 55.9405 137.14 54.4171 137.99 52.0001H142.558C141.752 56.8296 137.678 59.9248 132.124 59.9248C125.231 59.9248 120.797 54.9988 120.797 48.4176Z" fill="#3CFF64"/>
<path d="M145.556 48.2835C145.556 41.4784 150.385 36.649 156.97 36.649C163.555 36.649 168.479 41.5289 168.479 48.2835C168.479 55.0382 163.553 59.9181 156.97 59.9181C150.438 59.9269 145.556 55.0008 145.556 48.2835ZM163.959 48.2835C163.959 44.0753 161.139 40.6267 156.975 40.6267C152.811 40.6267 150.08 44.0753 150.08 48.2835C150.08 52.4544 152.811 55.9426 156.975 55.9426C161.139 55.9426 163.961 52.45 163.961 48.2835H163.959Z" fill="#3CFF64"/>
<path d="M193.787 27.6835V59.4766H190.068L189.667 56.4779H189.353C188.233 57.9992 186.038 59.9244 182.278 59.9244C176.276 59.9244 171.888 55.3145 171.888 48.2371C171.888 41.072 176.412 36.6399 182.278 36.6399C185.726 36.6399 188.053 38.2073 189.219 39.6847V27.6835H193.787ZM189.219 48.2371C189.219 43.715 186.756 40.6242 182.949 40.6242C179.099 40.6242 176.456 43.715 176.456 48.2371C176.456 52.8471 179.09 55.9401 182.949 55.9401C186.756 55.9401 189.219 52.8493 189.219 48.2371V48.2371Z" fill="#3CFF64"/>
<path d="M219.219 49.4408H202.649C202.869 53.4251 205.284 56.202 209.235 56.202C212.056 56.202 214.115 55.0386 214.833 52.7533H219.223C218.282 57.2316 214.521 59.9185 209.237 59.9185C202.788 59.9185 198.176 55.3964 198.176 48.5034C198.176 41.2044 202.968 36.6384 209.057 36.6384C214.521 36.6384 219.313 40.2648 219.313 47.9678C219.309 48.4112 219.263 48.8591 219.219 49.4408ZM202.693 46.216H214.875C214.831 42.7674 212.502 40.3505 209.053 40.3505C205.516 40.3505 203.141 42.9474 202.693 46.216Z" fill="#3CFF64"/>
<path d="M223.887 27.6835H228.455V59.4766H223.887V27.6835Z" fill="#3CFF64"/>
<path d="M233.277 68.3863V64.9377C234.056 65.122 234.851 65.2271 235.65 65.2516C237.709 65.2516 239.546 64.3998 240.532 62.0268L241.515 59.4738H240.038L231.396 37.0828H236.142L242.771 54.7695H243.128L249.347 37.085H254.095L244.779 62.6986C244.153 64.5359 242.542 68.878 236.631 68.878C235.497 68.8609 234.369 68.6956 233.277 68.3863Z" fill="#3CFF64"/>
</svg>
