<?xml version="1.0" encoding="UTF-8" standalone="no"?>
<svg
   xmlns:dc="http://purl.org/dc/elements/1.1/"
   xmlns:cc="http://creativecommons.org/ns#"
   xmlns:rdf="http://www.w3.org/1999/02/22-rdf-syntax-ns#"
   xmlns:svg="http://www.w3.org/2000/svg"
   xmlns="http://www.w3.org/2000/svg"
   xmlns:sodipodi="http://sodipodi.sourceforge.net/DTD/sodipodi-0.dtd"
   xmlns:inkscape="http://www.inkscape.org/namespaces/inkscape"
   inkscape:version="1.0 (6e3e5246a0, 2020-05-07)"
   sodipodi:docname="SimboloEPSC.svg"
   id="svg2"
   version="1.1"
   xml:space="preserve"
   width="174.91751"
   height="203.81874"
   viewBox="0 0 174.91751 203.81874"><sodipodi:namedview
     inkscape:current-layer="svg2"
     inkscape:window-maximized="1"
     inkscape:window-y="24"
     inkscape:window-x="0"
     inkscape:cy="98.003769"
     inkscape:cx="67.930748"
     inkscape:zoom="1.9185186"
     showgrid="false"
     id="namedview36"
     inkscape:window-height="716"
     inkscape:window-width="1366"
     inkscape:pageshadow="2"
     inkscape:pageopacity="0"
     guidetolerance="10"
     gridtolerance="10"
     objecttolerance="10"
     borderopacity="1"
     bordercolor="#666666"
     pagecolor="#ffffff" /><metadata
     id="metadata8"><rdf:RDF><cc:Work
         rdf:about=""><dc:format>image/svg+xml</dc:format><dc:type
           rdf:resource="http://purl.org/dc/dcmitype/StillImage" /><dc:title /></cc:Work></rdf:RDF></metadata><defs
     id="defs6" /><g
     id="g956"><path
       id="path14"
       style="fill:#6573d0;fill-opacity:1;fill-rule:nonzero;stroke:none;stroke-width:1.25"
       d="M 1.484375 0 L 1.484375 15.523438 L 9.0429688 15.523438 L 9.0429688 47.880859 L 9.0429688 49.853516 L 9.0429688 51.820312 L 9.0429688 79.628906 L 1.3515625 79.628906 L 1.3515625 95.150391 L 34.310547 95.150391 L 41.835938 95.150391 L 41.837891 95.146484 L 76.255859 95.146484 L 76.255859 63.701172 L 61.148438 63.701172 L 59.384766 63.701172 L 59.384766 79.628906 L 50.888672 79.628906 L 28.480469 79.628906 L 28.480469 53.851562 L 58.306641 53.851562 L 58.306641 49.853516 L 58.306641 38.330078 L 28.476562 38.330078 L 28.476562 15.523438 L 48.232422 15.523438 L 58.443359 15.523438 L 58.443359 29.828125 L 74.365234 29.828125 L 74.365234 0 L 39.179688 0 L 36.972656 0 L 1.484375 0 z " /><path
       d="M 1.4854688,9.379e-4 V 15.523438 h 7.5575 v 32.35875 L 36.972966,9.379e-4 Z"
       style="fill:#435cc8;fill-opacity:1;fill-rule:nonzero;stroke:none;stroke-width:1.25"
       id="path18-7" /><path
       d="m 41.835469,95.150312 9.0525,-15.5225 h -22.4075 v -25.77625 h 29.825 v -3.99875 H 9.041722 v 1.9675 l 25.268747,43.33 z"
       style="fill:#1fcbd4;fill-opacity:1;fill-rule:nonzero;stroke:none;stroke-width:1.25"
       id="path28-5" /><path
       d="m 9.0429688,51.821406 v 27.8075 h -7.69 v 15.5225 H 34.311716 Z"
       style="fill:#00b09b;fill-opacity:1;fill-rule:nonzero;stroke:none;stroke-width:1.25"
       id="path34-3" /><path
       d="m 58.443359,15.523438 v 14.30625 h 15.9225 V 9.379e-4 h -35.185 l 9.0525,15.5225001 z"
       style="fill:#270089;fill-opacity:1;fill-rule:nonzero;stroke:none;stroke-width:1.25"
       id="path60-5" /></g><g
     id="g1028"><path
       id="path38"
       style="fill:#6573d0;fill-opacity:1;fill-rule:nonzero;stroke:none;stroke-width:1.25"
       d="M 85.976562 0 L 85.976562 15.523438 L 88.28125 15.523438 L 93.667969 15.523438 L 93.667969 49.853516 L 93.667969 79.628906 L 86.109375 79.628906 L 86.109375 80.462891 L 86.109375 95.146484 L 94.669922 95.146484 L 94.671875 95.150391 L 102.19727 95.150391 L 102.19922 95.146484 L 120.52734 95.146484 L 120.52734 79.628906 L 113.10547 79.628906 L 113.10547 76.455078 L 113.10547 60.058594 L 122.66602 60.058594 L 130.51172 60.058594 C 131.85422 60.058594 133.15836 59.970391 134.44336 59.837891 C 142.83211 58.984141 149.84914 55.394766 154.61914 49.853516 C 158.93539 44.838516 161.42188 38.232266 161.42188 30.634766 C 161.42188 21.432122 158.27739 13.712335 152.83984 8.3261719 L 152.8418 8.3242188 C 147.52055 3.0467187 139.99969 0 131.05469 0 L 99.541016 0 L 113.10547 23.251953 L 113.10547 15.523438 L 125.24805 15.523438 C 134.44305 15.523438 140.58547 19.974453 141.76172 27.314453 C 141.89922 28.163203 141.98828 29.037188 141.98828 29.960938 C 141.98828 36.259687 138.23797 41.254844 132.41797 43.339844 C 130.50297 44.028594 128.3643 44.404297 126.06055 44.404297 L 125.43945 44.404297 L 113.09961 44.404297 L 113.09961 23.251953 L 99.541016 0 L 85.976562 0 z " /><path
       d="m 161.42172,30.635938 c 0,-9.20375 -3.145,-16.92375 -8.58375,-22.3099996 l -11.075,18.9899996 c 0.1375,0.84875 0.225,1.7225 0.225,2.64625 0,6.29875 -3.75,11.29375 -9.57,13.37875 l -3.79875,6.51375 h 26 c 4.31625,-5.015 6.8025,-11.62125 6.8025,-19.21875"
       style="fill:#8489d9;fill-opacity:1;fill-rule:nonzero;stroke:none;stroke-width:1.25"
       id="path44-2" /><path
       d="m 130.51297,60.059688 c 1.3425,0 2.64625,-0.0875 3.93125,-0.22 l -5.825,-9.985 -5.9525,10.205 z"
       style="fill:#435cc8;fill-opacity:1;fill-rule:nonzero;stroke:none;stroke-width:1.25"
       id="path50-9" /><path
       d="m 113.10547,15.523438 h 12.14375 c 9.195,0 15.3375,4.4525 16.51375,11.7925 L 152.84172,8.3259384 c -5.32125,-5.2775 -12.84125,-8.325 -21.78625,-8.325 H 99.54172 l 13.56375,23.2524996 z"
       style="fill:#435cc8;fill-opacity:1;fill-rule:nonzero;stroke:none;stroke-width:1.25"
       id="path52-1" /><path
       d="m 126.06047,44.404688 h -0.62 l 3.17875,5.45 3.79875,-6.51375 c -1.915,0.68875 -4.05375,1.06375 -6.3575,1.06375"
       style="fill:#435cc8;fill-opacity:1;fill-rule:nonzero;stroke:none;stroke-width:1.25"
       id="path54-2" /><g
       id="g997"
       transform="translate(-96.78214,18.386671)"><path
         id="path62-7"
         style="fill:#270089;fill-opacity:1;fill-rule:nonzero;stroke:none;stroke-width:1.25"
         d="m 209.88886,58.068563 -10.9075,18.69125 h 18.33 v -15.5175 h -7.4225 z" /><path
         id="path64-0"
         style="fill:#270089;fill-opacity:1;fill-rule:nonzero;stroke:none;stroke-width:1.25"
         d="m 182.89261,76.759813 h 8.56375 l -8.56375,-14.6825 z" /></g><path
       d="m 88.281719,15.523438 h 5.38625 v 34.33125 h 34.951251 l -3.17875,-5.45 h -12.34 V 23.253438 L 99.541719,9.384e-4 h -13.565 V 15.523438 Z"
       style="fill:#270089;fill-opacity:1;fill-rule:nonzero;stroke:none;stroke-width:1.25"
       id="path66-9" /></g><g
     id="g1105"><path
       id="path20"
       style="fill:#6573d0;fill-opacity:1;fill-rule:nonzero;stroke:none;stroke-width:1.25"
       d="M 30.234375 104.34961 C 13.631875 104.34961 0 116.76773 0 132.02148 C 0 138.76523 2.4317969 145.11273 6.7480469 149.83398 C 7.4130469 150.55648 8.0957031 151.20617 8.7832031 151.82617 C 9.3944531 152.37242 10.014531 152.88172 10.644531 153.35547 C 17.592031 158.58422 25.819297 159.63313 35.091797 160.76562 C 46.346797 162.18687 56.211719 163.38836 57.011719 172.63086 C 57.046719 173.03211 57.089844 173.42742 57.089844 173.85742 C 57.089844 178.23742 54.540781 181.85055 50.332031 184.0918 C 47.402031 185.65055 43.671953 186.54297 39.408203 186.54297 C 33.475703 186.54297 28.578047 184.98477 24.623047 182.04102 C 20.755547 179.15977 17.791953 174.94602 15.658203 169.54102 L 0 169.54102 L 0 201.11914 L 15.791016 201.11914 L 15.791016 190.32227 C 19.369766 194.01352 25.551797 200.36617 36.529297 202.45117 C 37.441797 202.62242 38.39375 202.76359 39.375 202.87109 C 40.845 203.03734 42.371797 203.14453 43.998047 203.14453 C 62.084297 203.14453 76.255859 189.51133 76.255859 172.23633 C 76.255859 170.38133 76.045234 168.12938 75.458984 165.70312 C 74.511484 161.76687 72.569453 157.36422 68.814453 153.35547 C 68.706953 153.23297 68.574141 153.11945 68.462891 153.00195 C 68.150391 152.6807 67.827734 152.35852 67.490234 152.04102 C 65.727734 150.38102 63.636719 148.81359 61.136719 147.40234 C 55.472969 144.30109 48.993047 142.68109 38.060547 141.46484 C 25.711797 140.24359 20.527031 138.46242 19.082031 134.16992 C 18.774531 133.25617 18.626953 132.23672 18.626953 131.07422 C 18.626953 126.79797 21.890469 123.03813 26.699219 121.10938 C 28.877969 120.23562 31.362422 119.73633 34.013672 119.73633 C 48.588672 119.60508 53.716797 128.91555 56.685547 134.31055 L 57.154297 134.31055 L 71.396484 134.31055 L 71.396484 105.9707 L 56.279297 105.9707 L 56.279297 116.09375 C 53.286797 112.695 48.724687 107.89977 40.429688 105.63477 C 39.125937 105.27852 37.719609 104.99039 36.224609 104.77539 L 36.222656 104.7793 C 34.378191 104.51071 32.396138 104.34961 30.234375 104.34961 z " /><path
       d="m 10.644816,153.35477 c 6.9475,5.22875 15.175,6.27875 24.4475,7.41125 11.255,1.42125 21.11875,2.6225 21.91875,11.865 l 11.245,-19.27625 z"
       style="fill:#6573d0;fill-opacity:1;fill-rule:nonzero;stroke:none;stroke-width:1.25"
       id="path20-8" /><path
       d="m 50.332266,184.09102 c -2.93,1.55875 -6.66,2.45125 -10.92375,2.45125 -5.9325,0 -10.83,-1.5575 -14.785,-4.50125 l 11.905,20.41 c 0.9125,0.17125 1.865,0.3125 2.84625,0.42 z"
       style="fill:#6573d0;fill-opacity:1;fill-rule:nonzero;stroke:none;stroke-width:1.25"
       id="path22-7" /><path
       d="m 68.462316,153.00227 c -0.3125,-0.32125 -0.635,-0.64375 -0.9725,-0.96125 -1.7625,-1.66 -3.8525,-3.2275 -6.3525,-4.63875 -5.66375,-3.10125 -12.14375,-4.72125 -23.07625,-5.9375 -12.34875,-1.22125 -17.53375,-3.0025 -18.97875,-7.295 l -10.29875,17.65625 c 0.61125,0.54625 1.23125,1.055 1.86125,1.52875 h 58.16875 c -0.1075,-0.1225 -0.24,-0.235 -0.35125,-0.3525"
       style="fill:#1fcbd4;fill-opacity:1;fill-rule:nonzero;stroke:none;stroke-width:1.25"
       id="path26-2" /><path
       d="M 15.658516,169.54102 H -2.38e-4 v 31.5775 h 15.791254 v -10.79625 c 3.57875,3.69125 9.76,10.04375 20.7375,12.12875 l -11.905,-20.41 c -3.8675,-2.88125 -6.83125,-7.095 -8.965,-12.5"
       style="fill:#1fcbd4;fill-opacity:1;fill-rule:nonzero;stroke:none;stroke-width:1.25"
       id="path30-0" /><path
       d="m 36.224818,104.77977 -9.52625,16.33375 c 2.17875,-0.87375 4.66375,-1.3725 7.315,-1.3725 14.575,-0.13125 19.7025,9.18 22.67125,14.575 h 0.46875 l -16.72375,-28.67625 c -1.30375,-0.35625 -2.71,-0.645 -4.205,-0.86"
       style="fill:#1fcbd4;fill-opacity:1;fill-rule:nonzero;stroke:none;stroke-width:1.25"
       id="path32-2" /><path
       d="m 30.234818,104.34977 c -16.602502,0 -30.235002,12.4175 -30.235002,27.67125 0,6.74375 2.43125,13.09125 6.7475,17.8125 0.665,0.7225 1.34875,1.3725 2.03625,1.9925 l 10.29875,-17.65625 c -0.3075,-0.91375 -0.455,-1.93375 -0.455,-3.09625 0,-4.27625 3.2625,-8.03625 8.071252,-9.965 l 9.52625,-16.32875 c -1.845,-0.26875 -3.8275,-0.43 -5.99,-0.43"
       style="fill:#00b09b;fill-opacity:1;fill-rule:nonzero;stroke:none;stroke-width:1.25"
       id="path36-3" /><path
       d="m 75.458566,165.70352 c -0.9475,-3.93625 -2.89,-8.34 -6.645,-12.34875 h -0.5575 l -11.245,19.27625 c 0.035,0.40125 0.0787,0.79625 0.0787,1.22625 0,4.38 -2.54875,7.9925 -6.7575,10.23375 l -10.9575,18.78 c 1.47,0.16625 2.9975,0.27375 4.62375,0.27375 18.08625,0 32.25625,-13.63375 32.25625,-30.90875 0,-1.855 -0.21,-4.10625 -0.79625,-6.5325 z"
       style="fill:#270089;fill-opacity:1;fill-rule:nonzero;stroke:none;stroke-width:1.25"
       id="path68-7" /></g><g
     id="g1169"><path
       id="path40"
       style="fill:#6573d0;fill-opacity:1;fill-rule:nonzero;stroke:none;stroke-width:1.25"
       d="M 128.62305 103.53906 C 119.35654 103.53906 111.07047 106.47964 104.31836 111.68359 L 104.31641 111.67969 C 93.115156 120.31719 86.157578 135.21547 85.986328 153.35547 C 85.986328 153.57422 85.976563 153.79453 85.976562 154.01953 C 85.976562 172.06078 92.838125 186.69086 104.14062 195.31836 C 111.27563 200.76211 120.17164 203.81836 130.24414 203.81836 C 139.99539 203.81836 148.02187 201.80617 154.60938 197.91992 C 164.34062 192.17742 170.88922 182.30453 174.91797 168.45703 L 155.3457 168.45703 C 153.31945 174.12578 151.4307 177.09563 149.4082 179.39062 C 148.26635 180.66366 147.05676 181.78499 145.76758 182.75586 L 145.76562 182.75391 C 141.86937 185.69391 137.30406 187.2168 132.13281 187.2168 C 124.47156 187.2168 118.2657 184.11578 113.93945 178.51953 C 109.49695 172.77828 107.02539 164.40953 107.02539 154.01953 C 107.02539 153.78953 107.04687 153.57922 107.04688 153.35547 C 107.14437 142.51547 109.58938 134.04789 114.04688 128.36914 C 118.24688 123.02789 124.21852 120.14063 131.72852 120.14062 C 136.72852 120.14062 141.43547 121.67469 145.44922 124.49219 C 147.07047 125.62969 148.58781 126.95797 149.94531 128.51172 C 152.24031 131.21172 153.72445 133.50039 155.75195 138.90039 L 172.89062 138.90039 L 172.89062 125.76562 L 172.89062 105.9707 L 161.34766 105.9707 L 156.28906 105.9707 L 156.28906 116.9043 C 155.18156 115.4943 153.95461 113.95516 152.47461 112.44141 C 148.02211 107.88141 141.2893 103.53906 128.62305 103.53906 z " /><path
       d="m 132.13508,187.21836 c -7.66125,0 -13.8675,-3.1 -18.19375,-8.69625 l -9.8,16.7975 c 7.135,5.44375 16.03125,8.50125 26.10375,8.50125 9.75125,0 17.77875,-2.0125 24.36625,-5.89875 l -8.84375,-15.16625 c -3.89625,2.94 -8.46125,4.4625 -13.6325,4.4625"
       style="fill:#6573d0;fill-opacity:1;fill-rule:nonzero;stroke:none;stroke-width:1.25"
       id="path40-9" /><path
       d="m 172.89062,105.9707 h -11.5425 l 11.5425,19.795 z"
       style="fill:#a8aae5;fill-opacity:1;fill-rule:nonzero;stroke:none;stroke-width:1.25"
       id="path42-2" /><path
       d="m 155.34562,168.45266 c -2.02625,5.66875 -3.915,8.6375 -5.9375,10.9325 -1.1425,1.27375 -2.3525,2.3975 -3.6425,3.36875 l 8.84375,15.16125 c 9.73125,-5.7425 16.27875,-15.615 20.3075,-29.4625 z"
       style="fill:#8489d9;fill-opacity:1;fill-rule:nonzero;stroke:none;stroke-width:1.25"
       id="path46-2" /><path
       d="m 149.94656,128.5118 c 2.295,2.7 3.77875,4.99 5.80625,10.39 h 17.1375 v -13.135 l -11.5425,-19.795 h -5.05875 v 10.9325 c -1.1075,-1.41 -2.33375,-2.94875 -3.81375,-4.4625 l -7.02625,12.05125 c 1.62125,1.1375 3.14,2.465 4.4975,4.01875"
       style="fill:#8489d9;fill-opacity:1;fill-rule:nonzero;stroke:none;stroke-width:1.25"
       id="path48-8" /><path
       d="m 107.04656,153.35555 h -21.06 c 0,0.21875 -0.01,0.43875 -0.01,0.66375 0,18.04125 6.86125,32.67125 18.16375,41.29875 l 9.8,-16.7975 c -4.4425,-5.74125 -6.91375,-14.11125 -6.91375,-24.50125 0,-0.23 0.02,-0.44 0.02,-0.66375"
       style="fill:#435cc8;fill-opacity:1;fill-rule:nonzero;stroke:none;stroke-width:1.25"
       id="path56-9" /><path
       d="m 104.31656,111.68555 9.73125,16.68375 c 4.2,-5.34125 10.17125,-8.2275 17.68125,-8.2275 5,0 9.70625,1.53375 13.72,4.35125 l 7.02625,-12.05125 c -4.4525,-4.56 -11.18625,-8.90125 -23.8525,-8.90125 -9.2675,0 -17.55375,2.94 -24.30625,8.145"
       style="fill:#435cc8;fill-opacity:1;fill-rule:nonzero;stroke:none;stroke-width:1.25"
       id="path58-7" /><path
       d="m 85.98656,153.35555 h 21.06 c 0.0975,-10.84 2.54375,-19.3075 7.00125,-24.98625 l -9.73125,-16.68875 c -11.20125,8.6375 -18.15875,23.535 -18.33,41.675"
       style="fill:#270089;fill-opacity:1;fill-rule:nonzero;stroke:none;stroke-width:1.25"
       id="path70-3" /></g></svg>
