<?xml version="1.0" encoding="utf-8"?>
<!-- Generator: Adobe Illustrator 26.3.1, SVG Export Plug-In . SVG Version: 6.00 Build 0)  -->
<svg version="1.1" id="Capa_1" xmlns="http://www.w3.org/2000/svg" xmlns:xlink="http://www.w3.org/1999/xlink" x="0px" y="0px"
	 viewBox="0 0 170.8 39" style="enable-background:new 0 0 170.8 39;" xml:space="preserve">
<style type="text/css">
	.st0{fill:#FF7900;}
	.st1{fill:#B8B7B8;stroke:#B8B7B8;stroke-width:0.7655;stroke-miterlimit:10;}
</style>
<g>
	<path class="st0" d="M38.6,8.4h-3.4l-9.8,22.3h2.3c0.6,0,1-0.2,1.5-0.4c0.5-0.3,0.8-0.7,1-1.2l1.4-3.2H42l1.4,3.2
		c0.2,0.5,0.6,0.9,1,1.2c0.5,0.3,0.9,0.4,1.5,0.4h2.3L38.6,8.4z M36.9,13.9l3.6,8.2h-7.1L36.9,13.9z"/>
	<rect x="52" y="8.4" class="st0" width="3.8" height="22.3"/>
	<path class="st0" d="M70.8,21.2c0.5-0.2,0.9-0.4,1.3-0.7c0.6-0.4,1.1-0.9,1.5-1.5s0.7-1.2,1-1.8c0.2-0.7,0.4-1.4,0.4-2.1
		c0-0.9-0.2-1.8-0.5-2.6c-0.4-0.8-0.8-1.5-1.4-2.1S71.8,9.3,71,9c-0.8-0.4-1.7-0.5-2.6-0.5h-8.1v22.3h3.8v-8.9h2.6l5.5,7.4
		c0.3,0.5,0.7,0.9,1.3,1.1c0.5,0.3,1.1,0.4,1.7,0.4h2.9L70.8,21.2z M63.9,12.2h4.3c0.4,0,0.8,0.1,1.1,0.2c0.4,0.2,0.7,0.4,0.9,0.6
		c0.3,0.3,0.5,0.6,0.6,0.9C71,14.3,71,14.6,71,15c0,0.4-0.1,0.8-0.2,1.1c-0.2,0.4-0.4,0.7-0.6,0.9c-0.3,0.3-0.6,0.5-0.9,0.6
		c-0.4,0.2-0.7,0.2-1.1,0.2h-4.3C63.9,17.8,63.9,12.2,63.9,12.2z"/>
	<path class="st0" d="M118.8,19c-0.3-0.3-0.7-0.5-1-0.6c-0.3-0.2-0.7-0.3-1-0.5s-0.7-0.3-1.1-0.4s-0.7-0.3-1.1-0.4
		c-0.7-0.2-1.3-0.5-1.8-0.7s-0.8-0.4-1.1-0.6c-0.3-0.2-0.5-0.4-0.6-0.7s-0.2-0.6-0.2-0.9c0-0.3,0.1-0.6,0.2-0.9
		c0.2-0.3,0.4-0.5,0.7-0.7c0.3-0.2,0.6-0.4,1-0.5s0.8-0.2,1.2-0.2c0.3,0,0.6,0.1,1,0.2c0.4,0.2,0.7,0.4,1.1,0.6
		c0.4,0.3,0.9,0.4,1.4,0.4c0.6,0,1.2-0.2,1.7-0.6l1-0.8l-0.2-0.3c-0.3-0.3-0.6-0.7-1-1.1c-0.4-0.4-0.9-0.7-1.4-1s-1.1-0.6-1.7-0.8
		s-1.3-0.3-1.9-0.3c-0.8,0-1.7,0.1-2.5,0.4c-0.8,0.3-1.5,0.6-2.2,1.1s-1.1,1.1-1.5,1.9c-0.4,0.7-0.6,1.6-0.6,2.5
		c0,1,0.2,1.9,0.5,2.5c0.4,0.7,0.8,1.3,1.4,1.7c0.6,0.5,1.2,0.9,2,1.2c0.7,0.3,1.4,0.6,2.2,0.9c0.5,0.2,1,0.4,1.5,0.6
		s0.9,0.4,1.3,0.7c0.4,0.3,0.7,0.5,0.9,0.9c0.2,0.3,0.3,0.7,0.3,1.2s-0.1,1-0.4,1.4s-0.6,0.8-1,1c-0.4,0.3-0.8,0.5-1.3,0.6
		c-1.1,0.3-2.1,0.3-2.9,0c-0.4-0.2-0.8-0.4-1.2-0.7l-0.2-0.2c-0.5-0.5-1.1-0.8-1.9-0.8c-0.5,0-0.8,0.2-1.1,0.4l-1.1,0.6l0.2,0.3
		c0,0.1,0.1,0.2,0.1,0.2c0,0.1,0.1,0.1,0.1,0.2c0.1,0.3,0.3,0.5,0.4,0.7c0.1,0.1,0.1,0.1,0.1,0.2c0.1,0.1,0.2,0.3,0.3,0.5
		c0.2,0.3,0.5,0.5,0.7,0.7c1.4,1.2,3.1,1.8,5.1,1.8c1,0,2-0.2,2.9-0.5s1.8-0.8,2.5-1.4s1.3-1.4,1.7-2.2c0.4-0.9,0.6-1.8,0.6-2.8
		C121.2,21.9,120.4,20.2,118.8,19z"/>
	<path class="st0" d="M17,19.4c-0.1-0.1-0.1-0.1-0.1-0.2c0.1-0.1,0.1-0.1,0.2-0.2L25,8.3h-2.9c-0.6,0-1.2,0.1-1.7,0.4
		c-0.5,0.3-0.9,0.6-1.3,1.1L13,18c-0.1,0.2-0.2,0.3-0.3,0.4l0,0v-10H8.9v22.3h3.8V20l0,0c0.1,0.1,0.2,0.2,0.3,0.4l6.5,8.8
		c0.3,0.5,0.7,0.9,1.3,1.1s1.1,0.4,1.7,0.4h2.9L17,19.4z"/>
	<path class="st0" d="M102.3,23.8c0.8-2,1.1-4.2,0.6-6.4c-0.3-1.5-0.9-2.8-1.7-4c1-0.7,1.8-1.2,1.8-1.2s-3.4-5.8-11-5.9v2.1
		c-0.7,0-1.5,0.1-2.2,0.2c-3.4,0.7-6.1,2.8-7.6,5.6c-1.1-0.6-1.9-1-1.9-1s-3.6,5.7-0.2,12.5l1.9-1c0.5,1,1.2,2,2,2.8
		c-0.9,0.9-1.5,1.5-1.5,1.5s3.7,4,9.4,3.9c5.6-0.1,10.1-3.1,12.3-8.2L102.3,23.8z M94.1,8.6c3.5,0.6,5.7,3.1,5.7,3.1
		s-2.7,1.6-3.2,2.1c-1.3-1-2.5-1.3-2.5-1.3V8.6z M84.7,20.9l-3.4,1.8c-1-3.4,0.1-6.5,0.1-6.5s2.6,1.7,3.4,1.9
		C84.4,19.7,84.7,20.9,84.7,20.9z M87.3,17c-0.3-0.2-1-0.6-1.9-1c1-1.8,2.8-3.2,5.1-3.7c0.5-0.1,1-0.2,1.5-0.2v2.1
		c0,0,2.7-0.2,4.4,2.3c0.3-0.2,1-0.7,1.8-1.2c0.5,0.8,0.9,1.7,1.1,2.7c0.3,1.5,0.1,3-0.4,4.3l-2-0.8c0,0-0.7,1.9-2.9,2.8
		c0,0-3.1,1.4-5.7-1.1c-0.2,0.2-0.8,0.8-1.5,1.5c-0.5-0.5-1-1.1-1.4-1.8l1.9-1C87.3,22,85.9,19.7,87.3,17z M94.1,30.5
		c-5.1,1-8.4-1.7-8.4-1.7s2.4-2.3,2.7-2.8c2.1,1.2,4.9,0.7,4.9,0.7c3.1-0.7,4.3-2.6,4.3-2.6l3.6,1.5C100,27.5,97.9,29.8,94.1,30.5z"
		/>
	<g>
		<path class="st1" d="M126.4,30.4V8.7h8.2c1,0,2,0.1,2.9,0.4s1.8,0.6,2.6,1.1s1.5,1,2.2,1.7s1.2,1.4,1.7,2.2s0.8,1.7,1.1,2.6
			s0.4,1.9,0.4,2.9s-0.1,2-0.4,2.9c-0.3,0.9-0.6,1.8-1.1,2.6c-0.5,0.8-1,1.5-1.7,2.2s-1.4,1.2-2.2,1.7s-1.7,0.8-2.6,1.1
			c-0.9,0.3-1.9,0.4-2.9,0.4L126.4,30.4L126.4,30.4z M134.6,27.4c1.1,0,2.1-0.2,3.1-0.6s1.8-1,2.5-1.7s1.3-1.6,1.7-2.5
			c0.4-1,0.6-2,0.6-3.1s-0.2-2.1-0.6-3.1c-0.4-0.9-1-1.8-1.7-2.5s-1.6-1.3-2.5-1.7s-2-0.6-3.1-0.6h-5.2v15.7L134.6,27.4L134.6,27.4z
			"/>
		<path class="st1" d="M157.4,12.4c-0.4-0.3-0.8-0.5-1.2-0.7s-0.8-0.3-1.1-0.3c-0.5,0-0.9,0.1-1.4,0.2c-0.4,0.1-0.8,0.3-1.1,0.5
			s-0.6,0.5-0.8,0.8s-0.3,0.7-0.3,1c0,0.4,0.1,0.8,0.2,1.1c0.2,0.3,0.4,0.6,0.7,0.8s0.7,0.5,1.2,0.7s1.1,0.4,1.8,0.7
			c0.4,0.2,0.7,0.3,1.1,0.4c0.4,0.1,0.7,0.3,1,0.4c0.3,0.2,0.7,0.3,1,0.5s0.7,0.4,0.9,0.6c1.5,1.2,2.3,2.7,2.3,4.7
			c0,1-0.2,1.9-0.6,2.7c-0.4,0.8-0.9,1.5-1.6,2.1s-1.5,1-2.4,1.4c-0.9,0.3-1.8,0.5-2.8,0.5c-2,0-3.6-0.6-4.9-1.7
			c-0.3-0.2-0.5-0.5-0.7-0.7s-0.4-0.5-0.5-0.7c-0.2-0.2-0.3-0.4-0.4-0.6c-0.1-0.2-0.2-0.3-0.3-0.5l0.7-0.4c0.4-0.2,0.8-0.4,1.2-0.4
			c0.7,0,1.2,0.2,1.7,0.7l0.3,0.2c0.4,0.3,0.8,0.6,1.3,0.7c0.5,0.2,1,0.3,1.6,0.3c0.5,0,1-0.1,1.5-0.3c0.5-0.2,1-0.4,1.4-0.7
			c0.4-0.3,0.8-0.7,1.1-1.1c0.3-0.5,0.4-1,0.4-1.6s-0.1-1.1-0.4-1.5c-0.3-0.4-0.6-0.7-1-1s-0.9-0.5-1.4-0.7s-1-0.4-1.5-0.6
			c-0.7-0.3-1.5-0.6-2.2-0.9s-1.4-0.7-1.9-1.1s-1-1-1.4-1.7c-0.3-0.7-0.5-1.5-0.5-2.4s0.2-1.7,0.6-2.4c0.4-0.7,0.9-1.3,1.5-1.8
			s1.3-0.8,2.1-1.1s1.6-0.4,2.4-0.4c0.6,0,1.2,0.1,1.8,0.3s1.1,0.5,1.7,0.8s1,0.7,1.4,1c0.4,0.4,0.8,0.7,1,1.1l-0.8,0.6
			c-0.4,0.4-0.9,0.5-1.5,0.5C158.2,12.7,157.8,12.6,157.4,12.4z"/>
	</g>
</g>
</svg>
