<svg width="520" height="65" viewBox="0 0 520 65" fill="none" xmlns="http://www.w3.org/2000/svg">
<path fill-rule="evenodd" clip-rule="evenodd" d="M58.3699 28.9222H64.1547C64.4448 28.9222 64.6803 28.6866 64.6803 28.3965V2.10388C64.6803 0.941697 63.7386 0 62.577 0H43.1205C42.8298 0 42.5943 0.235569 42.5943 0.526259V6.30989C42.5943 6.6 42.8298 6.83615 43.1205 6.83615H57.0557C57.4914 6.83615 57.8442 7.1895 57.8442 7.62467V28.3965C57.8442 28.6866 58.0798 28.9222 58.3699 28.9222ZM0.526027 35.7585H6.31024C6.60093 35.7585 6.83592 35.9935 6.83592 36.2842V57.0554C6.83592 57.4912 7.18927 57.844 7.62501 57.844L21.5602 57.8445C21.8508 57.8445 22.0864 58.0807 22.0864 58.3708V64.1544C22.0864 64.4451 21.8508 64.6807 21.5602 64.6807L2.10364 64.6801C0.942045 64.6801 0.000348132 63.7384 0.000348132 62.5768V36.2842C0.000348132 35.9935 0.235917 35.7585 0.526027 35.7585ZM35.7582 64.1547V58.3699C35.7582 58.0792 35.9938 57.8442 36.2844 57.8442H57.0557C57.4915 57.8442 57.8442 57.4915 57.8442 57.0557L57.8448 43.12C57.8448 42.8299 58.0804 42.5943 58.3705 42.5943H64.1547C64.4448 42.5943 64.6804 42.8299 64.6804 43.12L64.6798 62.5771C64.6798 63.7387 63.7381 64.6804 62.5765 64.6804H36.2844C35.9938 64.6804 35.7582 64.4448 35.7582 64.1547ZM28.9222 0.526027V6.31024C28.9222 6.60093 28.6866 6.83592 28.3965 6.83592H7.62467C7.1895 6.83592 6.83615 7.18927 6.83615 7.62443V21.5602C6.83615 21.8508 6.60058 22.0858 6.30989 22.0858H0.526259C0.235569 22.0858 0 21.8508 0 21.5602L0.00058022 2.10364C0.00058022 0.942045 0.942277 0.000348132 2.10388 0.000348132H28.3965C28.6866 0.000348132 28.9222 0.235337 28.9222 0.526027ZM125.249 17.8788L119.465 17.8794C119.175 17.8794 118.939 18.1149 118.939 18.405V46.2747C118.939 46.5654 119.175 46.8016 119.465 46.8016L125.25 46.801C125.54 46.801 125.775 46.5648 125.775 46.2747V18.4045C125.775 18.1143 125.54 17.8788 125.249 17.8788ZM214.696 17.8794H220.48C220.771 17.8794 221.006 18.1143 221.006 18.405V39.1763C221.006 39.6121 221.359 39.9648 221.795 39.9648L235.73 39.9654C236.021 39.9654 236.256 40.201 236.256 40.4917V46.2753C236.256 46.5654 236.021 46.8016 235.73 46.8016L216.274 46.801C215.112 46.801 214.17 45.8593 214.17 44.6977V18.405C214.17 18.1143 214.406 17.8794 214.696 17.8794ZM252.226 17.8794H246.442C246.152 17.8794 245.916 18.1143 245.916 18.405V44.6977C245.916 45.8593 246.858 46.801 248.02 46.801L267.476 46.8016C267.767 46.8016 268.002 46.5654 268.002 46.2753V40.4917C268.002 40.201 267.767 39.9654 267.476 39.9654L253.541 39.9648C253.105 39.9648 252.752 39.6121 252.752 39.1763V18.405C252.752 18.1143 252.517 17.8794 252.226 17.8794ZM87.2924 17.8794H93.0772C93.3673 17.8794 93.6028 18.1143 93.6028 18.405V39.1763C93.6028 39.6121 93.9556 39.9648 94.3913 39.9648L108.326 39.9654C108.617 39.9654 108.853 40.201 108.853 40.4917V46.2753C108.853 46.5654 108.617 46.8016 108.326 46.8016L88.87 46.801C87.7084 46.801 86.7667 45.8593 86.7667 44.6977V18.405C86.7667 18.1143 87.0023 17.8794 87.2924 17.8794ZM202.774 18.4043V32.34C202.774 41.3584 195.947 47.5894 187.525 47.5894C179.103 47.5894 172.275 41.3584 172.275 32.34V18.4043C172.275 18.1142 172.51 17.8787 172.8 17.8787H178.585C178.876 17.8787 179.111 18.1142 179.111 18.4043V32.34C179.111 38.1388 182.878 40.7538 187.525 40.7538C192.172 40.7538 195.938 38.1388 195.938 32.34V18.4043C195.938 18.1142 196.174 17.8787 196.465 17.8787H202.249C202.539 17.8787 202.774 18.1142 202.774 18.4043ZM161.391 17.8788C161.681 17.8788 161.916 18.1143 161.916 18.4045V24.1892C161.916 24.4794 161.681 24.7149 161.391 24.7149H147.456C147.02 24.7149 146.667 25.0683 146.667 25.504V28.6593C146.667 28.8049 146.784 28.9221 146.93 28.9221H161.391C161.681 28.9221 161.916 29.1571 161.916 29.4478V35.2326C161.916 35.5227 161.681 35.7582 161.391 35.7582H146.93C146.784 35.7582 146.667 35.8766 146.667 36.0217V46.2747C146.667 46.5654 146.432 46.801 146.141 46.8016H140.357C140.066 46.8016 139.83 46.5654 139.83 46.2747V19.9826C139.83 18.821 140.772 17.8794 141.934 17.8794L161.391 17.8788ZM304.159 17.0622C295.491 17.0622 288.494 24.3312 288.961 33.1163C289.349 41.0456 295.919 47.3816 303.887 47.5371C308.008 47.6149 311.778 46.0604 314.576 43.4558C314.771 43.2615 314.771 42.9116 314.576 42.7172L312.322 40.4625C312.128 40.2681 311.817 40.2681 311.622 40.4625C309.562 42.3285 306.802 43.417 303.809 43.3392C298.095 43.1448 293.392 38.5582 293.159 32.8436C292.848 26.5076 297.901 21.2601 304.159 21.2601C307.036 21.2601 309.64 22.3486 311.622 24.1368C311.817 24.3312 312.128 24.3312 312.322 24.1368L314.576 21.8827C314.771 21.6883 314.771 21.3384 314.576 21.1441C311.817 18.6172 308.202 17.0622 304.159 17.0622ZM325.537 32.339C325.537 38.4417 330.474 43.3776 336.577 43.3776C342.679 43.3776 347.616 38.4417 347.616 32.339C347.616 26.2356 342.679 21.2997 336.577 21.2997C330.474 21.2997 325.537 26.2356 325.537 32.339ZM351.814 32.339C351.814 40.7736 345.011 47.5761 336.577 47.5761C328.141 47.5761 321.34 40.7736 321.34 32.339C321.34 23.9037 328.141 17.1012 336.577 17.1012C345.011 17.1012 351.814 23.9037 351.814 32.339ZM359.79 18.3843V46.2546C359.79 46.5656 360.024 46.7983 360.335 46.7983H363.483C363.755 46.7983 363.988 46.5656 363.988 46.2546V24.7586C363.988 24.6809 364.106 24.6037 364.183 24.6809L382.141 46.4101C382.374 46.6433 382.647 46.7983 382.958 46.7983H386.145C386.456 46.7983 386.689 46.5656 386.689 46.2546V18.3843C386.689 18.1122 386.456 17.8789 386.145 17.8789H382.996C382.724 17.8789 382.491 18.1122 382.491 18.3843V39.9186C382.491 39.9963 382.336 40.0352 382.297 39.9963L364.299 18.2288C364.106 17.9956 363.833 17.8789 363.483 17.8789H360.335C360.024 17.8789 359.79 18.1122 359.79 18.3843ZM396.687 46.2546V18.3843C396.687 18.1122 396.92 17.8789 397.23 17.8789H400.379C400.729 17.8789 401.001 17.9956 401.196 18.2288L419.193 39.9963C419.232 40.0352 419.387 39.9963 419.387 39.9186V18.3843C419.387 18.1122 419.621 17.8789 419.893 17.8789H423.041C423.352 17.8789 423.585 18.1122 423.585 18.3843V46.2546C423.585 46.5656 423.352 46.7983 423.041 46.7983H419.854C419.543 46.7983 419.271 46.6433 419.037 46.4101L401.079 24.6809C401.001 24.6037 400.885 24.6809 400.885 24.7586V46.2546C400.885 46.5656 400.651 46.7983 400.379 46.7983H397.23C396.92 46.7983 396.687 46.5656 396.687 46.2546ZM433.146 19.9778V44.6998C433.146 45.866 434.079 46.7984 435.246 46.7984H454.253C454.525 46.7984 454.759 46.5658 454.759 46.2548V43.1059C454.759 42.8338 454.525 42.6005 454.253 42.6005H438.161C437.694 42.6005 437.344 42.2507 437.344 41.7848V34.6713C437.344 34.5152 437.461 34.3991 437.616 34.3991H454.292C454.565 34.3991 454.797 34.1659 454.797 33.8549V30.706C454.797 30.4339 454.565 30.2012 454.292 30.2012H437.616C437.461 30.2012 437.344 30.0846 437.344 29.9285V22.8934C437.344 22.4263 437.694 22.077 438.161 22.077H454.292C454.565 22.077 454.797 21.8432 454.797 21.5716V18.4228C454.797 18.1124 454.565 17.8785 454.292 17.8785H435.246C434.079 17.8785 433.146 18.8115 433.146 19.9778ZM462.424 33.1163C461.958 24.3312 468.955 17.0622 477.622 17.0622C481.665 17.0622 485.28 18.6172 488.04 21.1441C488.234 21.3384 488.234 21.6883 488.04 21.8827L485.786 24.1368C485.591 24.3312 485.28 24.3312 485.086 24.1368C483.103 22.3486 480.499 21.2601 477.622 21.2601C471.364 21.2601 466.311 26.5076 466.622 32.8436C466.855 38.5582 471.559 43.1448 477.273 43.3392C480.266 43.417 483.025 42.3285 485.086 40.4625C485.28 40.2681 485.591 40.2681 485.786 40.4625L488.04 42.7172C488.234 42.9116 488.234 43.2615 488.04 43.4558C485.241 46.0604 481.471 47.6149 477.351 47.5371C469.382 47.3816 462.813 41.0456 462.424 33.1163ZM505.54 22.2323V46.2546C505.54 46.5656 505.774 46.7983 506.085 46.7983H509.233C509.505 46.7983 509.738 46.5656 509.738 46.2546V22.2323C509.738 22.1157 509.855 21.9602 510.01 21.9602H519.495C519.767 21.9602 520 21.727 520 21.4548V18.4226C520 18.1122 519.767 17.8789 519.495 17.8789H495.823C495.512 17.8789 495.279 18.1122 495.279 18.4226V21.4548C495.279 21.727 495.512 21.9602 495.823 21.9602H505.268C505.424 21.9602 505.54 22.1157 505.54 22.2323Z" fill="#ED6103"/>
</svg>
